<?xml version="1.0" encoding="utf-8"?>
<!-- Generator: Adobe Illustrator 18.0.0, SVG Export Plug-In . SVG Version: 6.00 Build 0)  -->
<!DOCTYPE svg PUBLIC "-//W3C//DTD SVG 1.1//EN" "http://www.w3.org/Graphics/SVG/1.1/DTD/svg11.dtd">
<svg version="1.1" id="Layer_1" xmlns="http://www.w3.org/2000/svg" xmlns:xlink="http://www.w3.org/1999/xlink" x="0px" y="0px"
	 viewBox="0 0 130 130" enable-background="new 0 0 130 130" xml:space="preserve">
<g>
	<path d="M84.5,39.8c4.9,0.7,9.6,1.3,13.8,1.6c4.2,0.3,8.2,0.6,11.1-0.2c2.9-1,4.9-2.7,6.1-4c1.2-1.3,1.7-2.2,1.8-2.1
		c0.1,0.1-0.1,1.1-1.2,2.6c-1,1.5-3,3.7-6.2,4.9c-3.5,1.1-7.3,0.8-11.7,0.7c-4.3-0.2-9.1-0.7-14-1.5c-5-0.8-9.6-1.7-13.8-3.2
		c-1.1-0.4-2.1-0.8-3.1-1.6c-1-0.9-1.4-2-1.7-2.9c-0.6-2-0.8-3.8-1-5.4c-0.4-6.6,0.3-10.6,0.6-10.6c0.3,0,0.2,4.1,0.9,10.5
		c0.2,1.6,0.5,3.3,1.2,5c0.3,0.8,0.7,1.6,1.3,2.1c0.6,0.5,1.6,0.9,2.5,1.2C75,38.2,79.7,39,84.5,39.8z"/>
	<path d="M89.8,56.8c-3,0.5-5.9,0.9-8.5,1.3c-0.8,0.1-1,0.3-2.2,0.2c-0.6-0.1-1.2-0.2-1.8-0.3c-1.2-0.2-2.2-0.4-3.2-0.6
		c-3.9-0.7-6.3-1.4-6.3-1.6c0-0.3,2.5-0.2,6.5,0.2c1,0.1,2.1,0.2,3.3,0.3c0.6,0.1,1.2,0.1,1.8,0.2c0.1,0,1.1-0.2,1.6-0.3
		c2.6-0.5,5.5-1,8.5-1.4c3-0.5,5.9-0.9,8.5-1.2c-0.2,0.3,0.4-0.4,0.7-0.8c0.3-0.5,0.6-1,0.9-1.5c0.6-1,1.1-2,1.5-2.8
		c1.8-3.5,3-5.7,3.2-5.6c0.3,0.1-0.4,2.5-1.9,6.3c-0.4,0.9-0.8,2-1.3,3c-0.3,0.5-0.6,1.1-0.9,1.7c-0.2,0.3-0.4,0.6-0.6,0.9
		c-0.1,0.2-0.3,0.3-0.5,0.5c-0.2,0.1-0.2,0.2-0.5,0.3c-0.3,0.1-0.4,0.1-0.5,0.1C95.7,55.8,92.8,56.3,89.8,56.8z"/>
	<path d="M45.8,41.9c-5,0.8-9.7,1.2-14,1.5c-4.4,0.1-8.2,0.4-11.7-0.7c-3.2-1.3-5.2-3.4-6.2-4.9c-1.1-1.6-1.3-2.6-1.2-2.6
		c0.1-0.1,0.6,0.8,1.8,2.1c1.2,1.3,3.1,3.1,6.1,4c2.8,0.8,6.9,0.4,11.1,0.2c4.3-0.3,9-0.9,13.8-1.6C50.3,39,55,38.2,59,36.9
		c1-0.3,1.9-0.7,2.5-1.2c0.6-0.5,1-1.3,1.3-2.1c0.6-1.7,0.9-3.4,1.2-5c0.8-6.4,0.6-10.5,0.9-10.5c0.2,0,1,4,0.6,10.6
		c-0.1,1.7-0.3,3.5-1,5.4c-0.4,1-0.8,2-1.7,2.9c-1,0.8-2,1.2-3.1,1.6C55.4,40.3,50.7,41.1,45.8,41.9z"/>
	<path d="M40.5,54.6c3,0.5,5.9,1,8.5,1.4c0.5,0.1,1.6,0.3,1.6,0.3c0.6-0.1,1.2-0.1,1.8-0.2c1.2-0.1,2.3-0.2,3.3-0.3
		c4-0.4,6.5-0.4,6.5-0.2s-2.4,0.9-6.3,1.6c-1,0.2-2.1,0.4-3.2,0.6c-0.6,0.1-1.2,0.2-1.8,0.3c-1.2,0.1-1.4-0.1-2.2-0.2
		c-2.6-0.4-5.5-0.8-8.5-1.3c-3-0.5-5.9-1-8.4-1.4c0,0-0.1,0-0.5-0.1C31,55.1,31,55.1,30.8,55c-0.2-0.2-0.3-0.3-0.5-0.5
		c-0.2-0.3-0.4-0.6-0.6-0.9c-0.3-0.6-0.6-1.1-0.9-1.7c-0.5-1.1-1-2.1-1.3-3c-1.5-3.7-2.1-6.1-1.9-6.3c0.3-0.1,1.4,2.1,3.2,5.6
		c0.5,0.9,1,1.8,1.5,2.8c0.3,0.5,0.6,1,0.9,1.5c0.2,0.4,0.9,1.1,0.7,0.8C34.7,53.7,37.5,54.2,40.5,54.6z"/>
	<path d="M66.3,45.3c-0.6,5.3,0.5,9.6,0.1,9.8c-0.6,0.4-2.8-4.2-2.2-10c0.6-5.7,2.3-9.9,2.8-9.8C67.6,35.5,66.8,39.9,66.3,45.3z"/>
	<path d="M65.8,45.3c0.6,5.7-1.6,10.1-2.2,9.7c-0.4-0.2,0.6-4.3,0.1-9.5c-0.6-5.2-1.7-9.4-1.1-9.6C63.1,35.7,65.2,39.7,65.8,45.3z"
		/>
	<path d="M67,59.9c-1,2.4-1.3,4.7-1.9,4.7c-0.5,0.1-1.2-2.5,0.1-5.5c1.3-3.1,4.4-3.9,4.5-3.2C69.8,56.4,68,57.5,67,59.9z"/>
	<path d="M94.3,77.8c-3.8,1.3-7.6,1.4-11,0.7c-3.3-0.8-6-1.8-8.3-2.6c-4.6-1.7-7.4-3-7.3-3.3c0.1-0.3,3,0.5,7.7,1.9
		c2.3,0.6,5.2,1.5,8.2,2.1c2.9,0.5,6.5,0.3,9.8-0.8c0.2-0.1,0.4-0.2,0.5-0.2c0.1-0.1,0,0,0,0c0,0,0.1-0.1,0.1-0.2
		c0.2-0.3,0.5-0.7,0.7-1.1c0.5-0.8,0.9-1.5,1.3-2.3c0.9-1.5,1.7-3,2.4-4.4c0.8-1.4,1.5-2.8,2.2-4l0.5-0.9l0.2-0.5l0.1-0.1l0-0.1l0,0
		c0-0.2,0.2,1.7,0.1,0.9l0,0l0,0l-0.2-0.2c-0.4-0.5-0.8-1-1.2-1.5c-3.1-3.8-4.8-6.3-4.6-6.5c0.2-0.2,2.4,1.9,5.7,5.5
		c0.4,0.4,0.9,0.9,1.3,1.4l0.2,0.2l0,0l0,0c-0.1-0.8,0.1,1.1,0.1,0.9l0,0l0,0.1l-0.1,0.1l-0.2,0.5l-0.4,1c-0.6,1.3-1.3,2.7-2,4.1
		c-0.7,1.5-1.5,3-2.3,4.5c-0.4,0.8-0.9,1.6-1.3,2.4c-0.2,0.4-0.5,0.8-0.8,1.2c-0.1,0.1-0.2,0.2-0.3,0.4c-0.2,0.2-0.4,0.4-0.5,0.4
		C94.8,77.6,94.6,77.7,94.3,77.8z"/>
	<g>
		<path d="M64.8,59.1c1.3,3,0.6,5.6,0.1,5.5c-0.6,0-0.9-2.3-1.9-4.7c-1-2.4-2.8-3.6-2.7-4.1C60.4,55.3,63.4,56,64.8,59.1z"/>
	</g>
	<g>
		<path d="M102.1,88.8c2.2-4.4,5.5-11.2,8.2-19.2c4.4-14.1,6.6-26,7.1-25.9c0.7,0.1-0.6,12.2-5.1,26.6c-2.9,8.8-6.9,15.9-9.6,20
			C102.2,91,101.7,89.5,102.1,88.8z"/>
	</g>
	<path d="M36.4,75.8c3.3,1.1,6.9,1.3,9.8,0.8c3.1-0.6,5.9-1.5,8.2-2.1c4.7-1.3,7.6-2.1,7.7-1.9c0.1,0.3-2.7,1.6-7.3,3.3
		c-2.3,0.8-5,1.8-8.3,2.6c-3.4,0.7-7.1,0.5-11-0.7c-0.2-0.1-0.5-0.2-0.8-0.3c-0.1,0-0.4-0.2-0.5-0.4c-0.1-0.1-0.2-0.3-0.3-0.4
		c-0.3-0.4-0.6-0.8-0.8-1.2c-0.5-0.8-0.9-1.6-1.3-2.4c-0.8-1.6-1.6-3.1-2.3-4.5c-0.7-1.5-1.4-2.8-2-4.1l-0.4-1L26.9,63l-0.1-0.1
		l0-0.1l0,0c0,0.2,0.2-1.7,0.1-0.9l0,0l0,0l0.2-0.2c0.5-0.5,0.9-1,1.3-1.4c3.3-3.6,5.5-5.7,5.7-5.5c0.2,0.2-1.6,2.7-4.6,6.5
		c-0.4,0.5-0.8,1-1.2,1.5l-0.2,0.2l0,0l0,0c-0.1,0.8,0.1-1.1,0.1-0.9l0,0l0,0.1l0.1,0.1l0.2,0.5l0.5,0.9c0.7,1.3,1.4,2.6,2.2,4
		c0.8,1.4,1.6,2.9,2.4,4.4c0.4,0.8,0.9,1.5,1.3,2.3c0.2,0.4,0.5,0.8,0.7,1.1c0.1,0.1,0.1,0.1,0.1,0.2c0,0,0-0.1-0.1,0
		c-0.1,0.1-0.2,0.3-0.3,0.5l0,0.1c-0.1,0.2,0.7-1.2,0.4-0.6l0,0l0,0l0,0C36.1,75.6,36.3,75.7,36.4,75.8z"/>
	<g>
		<g>
			<path d="M94.7,79.4c-0.2-0.2-2,1.5-4.2,4.8c-1.1,1.7-2.2,3.7-3.1,6.2c-1,2.5-1.5,5.3-2.1,8.2c-0.3,1.5-0.5,2.9-0.8,4.3
				c-0.1,0.7-0.2,1.4-0.3,2l0,0.1l-0.2,0.2l-0.7,0.7c-1.8,1.8-3.8,5.9-3.8,5.9c1.5-1.3,3.2-2.8,5.1-4.5l0.7-0.6l0.4-0.3l0,0l0,0l0,0
				c0.6-1.1,0.2-0.3,0.3-0.6l0,0l0-0.1l0-0.2c0.1-0.7,0.2-1.3,0.4-2c0.3-1.4,0.5-2.8,0.8-4.2C88.8,87.4,95.3,79.8,94.7,79.4z"/>
			<path d="M46.2,105.5l-0.3-0.3l-0.1-0.1l-0.1-0.7c-0.1-0.7-0.2-1.3-0.3-2c-0.2-1.4-0.5-2.7-0.8-4.2c-0.6-2.8-1.1-5.6-2.1-8.1
				c-0.9-2.4-2.1-4.4-3.1-6.1c-2.1-3.2-3.9-4.9-4.1-4.7c-0.6,0.4,5.7,7.8,7.2,19.2c0.3,1.4,0.5,2.8,0.8,4.1c0.1,0.7,0.3,1.3,0.4,2
				l0.2,1l0,0c-0.1-0.1,0.6,1.1,0.3,0.6l0,0l0,0l0,0l0.1,0.1l0.2,0.2l0.4,0.3c3.2,4.2,7.8,4.9,7.8,4.9
				C51.3,110.5,48,107.2,46.2,105.5z"/>
		</g>
		<path d="M24.8,99c-1.2,3.5-1.5,9-0.2,11.9c0,0.3-2.4-1.9-2.8-5.1c0-2.4,0.3-4.7,0.9-7.3c0.6-2.6,1.7-4.9,2.8-6.8
			c1-1.8,1.7-3.7,2.4-5.2c1.3-3,2.2-4.9,2.4-4.8c0.3,0.1-0.1,2.1-1,5.3c-0.5,1.6-1.1,3.5-2.1,5.6C26.3,94.6,25.4,96.6,24.8,99z"/>
		<path d="M105.2,99c1.2,3.5,1.5,9,0.2,11.9c0,0.3,2.4-1.9,2.8-5.1c0-2.4-0.3-4.7-0.9-7.3c-0.6-2.6-1.7-4.9-2.8-6.8
			c-1-1.8-1.7-3.7-2.4-5.2c-1.3-3-2.2-4.9-2.4-4.8c-0.3,0.1,0.1,2.1,1,5.3c0.5,1.6,1.1,3.5,2.1,5.6C103.7,94.6,104.6,96.6,105.2,99z
			"/>
		<path d="M27.9,88.8c-2.2-4.4-5.5-11.2-8.2-19.2c-4.4-14.1-6.6-26-7.1-25.9c-0.7,0.1,0.6,12.2,5.1,26.6c2.9,8.8,6.9,15.9,9.6,20
			C27.8,91,28.3,89.5,27.9,88.8z"/>
	</g>
	<ellipse cx="65" cy="83" rx="0.8" ry="7.6"/>
	<ellipse cx="65" cy="66.3" rx="0.8" ry="6.3"/>
	<path d="M65,98.9c-0.4,0-0.8,3.4-0.8,7.6c0,1.5,0.7,4.4,1.4,4.4c0.8,0,0.2-2.8,0.2-4.4C65.8,102.3,65.4,98.9,65,98.9z"/>
	<g>
		<path d="M65.5,96.4c-0.7-1.8-0.1-3.1-0.1-3.1s-2.3-0.5-1.9,2.1C63.8,97,65.9,97.4,65.5,96.4z"/>
	</g>
</g>
</svg>
