<?xml version="1.0" encoding="utf-8"?>
<!-- Generator: Adobe Illustrator 18.0.0, SVG Export Plug-In . SVG Version: 6.00 Build 0)  -->
<!DOCTYPE svg PUBLIC "-//W3C//DTD SVG 1.1//EN" "http://www.w3.org/Graphics/SVG/1.1/DTD/svg11.dtd">
<svg version="1.1" id="Layer_1" xmlns="http://www.w3.org/2000/svg" xmlns:xlink="http://www.w3.org/1999/xlink" x="0px" y="0px"
	 viewBox="0 0 130 130" enable-background="new 0 0 130 130" xml:space="preserve">
<g>
	<path d="M28.6,66.7c4.1,1.5,8,2.1,7.9,2.7c-0.1,0.5-3.9,0.9-8.7-0.8c-2.5-1.1-3.9-2.9-4.8-4.1c-0.9-1.3-1.2-2.3-1-2.4
		C22.5,61.6,25,64.9,28.6,66.7z"/>
	<path d="M43.2,65.7c7.5,2.5,11.5,7.7,11.1,8c-0.4,0.5-5-3.7-11.7-5.9c-3.3-1-6.6-0.5-8.9-0.1c-2.3,0.4-3.8,0.8-3.9,0.6
		c-0.1-0.3,1.2-1.2,3.5-2C35.6,65.4,39.2,64.6,43.2,65.7z"/>
	<path d="M66.8,73.9c10.1,3.7,15.4,10.8,15,11c-0.4,0.6-6.4-5.6-15.7-9c-4.6-1.5-9.2-1.4-12.5-1.2c-3.3,0.2-5.3,0.5-5.4,0.2
		c-0.1-0.3,1.9-1.1,5.2-1.7C56.8,72.6,61.7,72.2,66.8,73.9z"/>
	<path d="M77,65.8c0.2-4-1.2-7.8-2.7-11.1c-1.4-3.3-2.9-6.3-4.1-8.8c-2.5-5-4-8-3.8-8.2c0.2-0.1,2.3,2.7,5.1,7.5
		c1.4,2.4,3,5.3,4.6,8.7c1.6,3.3,3.2,7.4,3,11.9c-0.3,4.4-1.1,8.2,0.2,11.5c1.1,3.3,2.8,6.3,4.1,8.7c2.7,4.8,4.6,7.7,4.3,7.9
		c-0.2,0.2-2.5-2.4-5.6-7.1c-1.5-2.4-3.3-5.2-4.6-8.8C75.9,74.2,76.8,69.7,77,65.8z"/>
	<path d="M97.8,109.7c-3.3-0.2-6.2,0.1-9.1,0.2c-2.9,0.1-5.5,0-7.7-0.5c-4.3-1.1-6.6-2.5-6.5-2.8c0.1-0.3,2.7,0.6,6.8,1.3
		c2,0.3,4.5,0.2,7.3,0c2.7-0.2,6-0.6,9.3-0.4c1.6,0,3.2,0.1,4.7,0c1.5-0.1,2.8-0.3,3.2-1c1-1.8,0-4.6-0.4-6.6c-0.9-4.3-0.9-7-0.6-7
		c0.3-0.1,0.9,2.6,2.1,6.6c0.3,1,0.7,2.1,1,3.4c0.2,1.3,0.6,2.9-0.4,4.6c-0.4,0.8-1.5,1.5-2.3,1.7c-0.8,0.2-1.7,0.3-2.5,0.4
		C101.1,109.8,99.4,109.7,97.8,109.7z"/>
	<path d="M57.9,111.4c-3.8-1.7-6.7-4.3-9.4-6.3c-1.3-1-2.7-1.8-3.9-2c-1.4-0.2-2.8-0.2-3.9,0c-4.9,0.9-6.6,4.2-6.9,3.9
		c-0.1-0.1,0.1-0.9,1.1-2.1c1-1.1,2.8-2.6,5.5-3.3c1.3-0.3,2.8-0.4,4.5-0.3c1.8,0.2,3.4,1.2,4.8,2.1c2.9,2,5.7,4.4,9.1,6
		c6.9,3.2,14.3,1.9,19.2,1.2c5-0.9,8.1-1.9,8.2-1.6c0.1,0.3-2.8,1.7-7.9,3c-2.5,0.6-5.6,1.2-9.1,1.4
		C65.8,113.5,61.7,113.2,57.9,111.4z"/>
	<path d="M45.9,115.1c-1.9,2.9-4.3,4.4-6,5.5c-1.7,1.1-3,1.5-3.1,1.2c-0.2-0.3,0.7-1.1,2.2-2.4c1.4-1.3,3.6-3.1,5.1-5.4
		c2.7-5.1,4.5-9.9,5.1-9.7C49.7,104.5,48.9,109.4,45.9,115.1z"/>
	<path d="M34.2,88.2c0.2-1.3,0.5-3.2,1.7-4.2c1-1,2.2-1.6,3.2-1.8c2.1-0.5,3.3,0.1,3.3,0.3c0,0.3-1.2,0.4-2.8,1.1
		c-0.8,0.4-1.6,0.9-2.3,1.8c-0.7,0.7-0.8,1.7-1,3.3c-0.6,3-1.8,5.6-3.4,7c-1.5,1.4-2.8,1.7-2.9,1.5c-0.2-0.3,0.8-1,1.8-2.5
		C32.8,93.2,33.8,90.8,34.2,88.2z"/>
	<path d="M56.9,95.2c5.5,2.4,11.1,2.8,15.1,3c4,0.2,6.5,0,6.6,0.3c0,0.3-2.4,1-6.6,1.2c-4.1,0.2-10,0.1-16-2.6
		c-5.8-2.7-10.3-6.2-13.4-8.8c-3.1-2.6-4.8-4.5-4.7-4.7c0.2-0.2,2.2,1.2,5.6,3.5C46.8,89.4,51.4,92.6,56.9,95.2z"/>
	<path d="M62.3,18.8c1.1,0.6,1.4,1,1.8,1.4c0.2,0.2-0.1,0.8-0.8,0.9c-0.6,0.1-1.4,0-2.1-0.4c-1.5-0.8-1.8-2.6-1.1-2.7
		C60.6,17.8,61.4,18.3,62.3,18.8z"/>
	<path d="M84.3,42.3c5.3,7.6,10.3,14.7,14.9,21.3c2.2,3.4,4.2,6.7,5.7,9.9c1.5,3.2,2.6,6.6,2.5,9.8c0,6.4-3.2,10.7-3.2,14
		c-0.1,3.3,0.3,5,0.1,5c-0.1,0.1-0.8-1.5-1-5c-0.1-3.7,2.7-8,2.5-13.9c-0.1-5.8-4.1-12.1-8.4-18.7c-4.6-6.4-9.8-13.6-15-21.2l-2-2.8
		c-0.6-0.9-1.4-1.8-1.9-3.2c-0.4-1.3-0.4-2.5-0.5-3.5c-0.1-1-0.4-1.7-1-2.3c-0.3-0.4-0.6-0.4-1.2-0.9c-0.7-0.6-0.9-1.1-1.2-1.6
		c-0.5-1-1-2-1.4-2.9c-0.8-1.9-1.6-3.8-2.4-5.6c-1.6-3.6-3.5-6.8-5.5-9.7l-0.4-0.5c-0.2-0.2,0.1,0.1,0.1,0c0,0-0.1,0-0.1-0.1
		c-0.3-0.1-0.7-0.2-1.1-0.2c-0.8-0.1-1.6-0.2-2.4-0.3c0.1-0.6-0.6,0.5-0.9,1.1c-0.4,0.6-0.8,1.3-1.2,1.9c-1.5,2.6-2.8,5-3.6,7.1
		c-0.1,0.3-0.2,0.5-0.2,0.7c-0.1-0.1,0.1,0.1,0.2,0.3c0.4,0.3,0.8,0.6,1.2,0.9c0.9,0.5,1.7,0.9,2.4,1.3c1.5,0.6,2.7,1.4,3.3,0.7
		c0.7-0.5,1-0.8,1.1-0.8c0.1,0-0.1,0.5-0.8,1.1c-0.2,0.2-0.3,0.3-0.7,0.5c-0.4,0.1-0.7,0-1,0c-0.7-0.1-1.4-0.4-2.2-0.7
		c-0.8-0.3-1.7-0.7-2.6-1.2c-0.5-0.3-0.9-0.5-1.4-0.9c-0.2-0.2-0.6-0.4-0.7-1.1c0-0.4,0.1-0.7,0.2-1c0.8-2.4,2-4.8,3.5-7.5
		c0.4-0.7,0.8-1.3,1.2-2C59.5,9.7,59.8,9.3,60,9c0.2-0.2,0.2-0.3,0.6-0.6c0.8-0.4,0.7-0.1,0.8-0.2l0.3,0c0.8,0,1.7,0.1,2.6,0.2
		c0.5,0.1,0.9,0.1,1.4,0.3c0.1,0,0.3,0.1,0.5,0.2c0.2,0.1,0.6,0.5,0.5,0.5l0.4,0.5c2.1,2.9,4,6.2,5.8,9.9c0.9,1.8,1.7,3.7,2.5,5.6
		c0.4,0.9,0.9,1.9,1.3,2.8c0.2,0.4,0.5,0.9,0.7,1c0.2,0.2,1,0.6,1.4,1c1,0.9,1.5,2.3,1.6,3.6c0.1,1.2,0.1,2.2,0.4,3.1
		c0.2,0.8,1,1.7,1.6,2.6L84.3,42.3z"/>
	<path d="M65.2,23.8c0.1,0.4,0.3,0.7,0.5,1c0.3,0.4,0.5,0.7,0.8,1c0.5,0.6,1.1,1.2,1.5,1.6c0.9,0.9,1.5,1.5,1.4,1.8
		c-0.1,0.3-1,0.1-2.3-0.6c-0.6-0.3-1.3-0.8-2-1.5c-0.4-0.3-0.7-0.7-1-1.1c-0.4-0.5-0.7-1.1-0.9-1.7c-1-4.7,0.9-7.8,1.3-7.7
		C65.2,16.8,64.4,20.3,65.2,23.8z"/>
	<g>
		<path d="M51.7,18.4c0.3-0.8,0.6-1.6,1-2.4c0.7-1.7,1.3-3.3,1.9-4.7c0.1-0.4,0.5-0.9,0.6-1.2c0.6-0.1,1.3-0.1,1.8-0.2
			c2.4-0.2,3.8-0.5,3.8-0.8c0-0.3-1.5-0.6-3.9-0.7c-0.6,0-1.2-0.1-2-0.1c-0.1,0-0.2,0-0.3,0c0,0-0.3,0-0.5,0.2
			C54,8.7,54,8.7,53.9,8.8c-0.2,0.2-0.3,0.4-0.4,0.6c-0.2,0.4-0.4,0.7-0.6,1.1c-0.8,1.4-1.4,3-2.1,4.7c-0.3,0.8-0.7,1.7-1,2.5
			l-0.4,1.2l-0.1,0.3c-0.1,0-0.1,0.9,0,0.9c0.2,0.5,0.3,0.6,0.5,0.8c0.1,0.1,0.2,0.2,0.2,0.2l2.4,0c-0.3-0.3-0.8-1.2-1-1.5
			c0,0,0,0,0,0l0-0.1L51.7,18.4z"/>
	</g>
	<path d="M49.6,13.9c-0.5,1.2-1,2.4-1.5,3.5L48,17.8L47.9,18l0,0.1l0,0l0,0l0,0c0.6,0.2-0.8-0.3-0.7-0.3l0,0l0,0
		c0.1,0.1,0.9-0.3,0.7-0.1c0,0,0.1,0.1,0.1,0.2c0.2,0.3,0.6,0.7,0.9,1c1.2,1.2,2,1.8,2,2c-0.1,0.4-1.4,0.2-2.9-0.9
		c-0.4-0.3-0.8-0.5-1.3-1c-0.2-0.3-0.6-0.3-0.6-1.6c0.1-0.4,0.2-0.6,0.3-0.9c0.4-1.1,0.8-2.3,1.3-3.6c0.5-1.3,1.1-2.4,1.7-3.5
		c0.3-0.3,0-0.4,1-1.1c0.7-0.2,0.7,0,1.1-0.1c0.5,0,1,0.1,1.5,0.1c1.8,0.2,2.9,0.4,2.9,0.7c0,0.3-1.1,0.6-2.9,0.8
		c-0.4,0.1-0.9,0.1-1.4,0.2l-0.4,0l-0.2,0l-0.1,0l0,0l0,0l0,0h0c0,0.2-0.2-1.6-0.1-0.8c0,0.1,0,0.2,0.1,0.2c0.7,0.6,0.4,0.4,0.4,0.5
		c0,0.1-0.1,0.2-0.2,0.3C50.6,11.5,50.2,12.7,49.6,13.9z"/>
	<path d="M56,28c-1.2,0.7-2.5,0.6-3.5,0.5c-1.1-0.1-6.1-1.8-6.5-2.1c-0.3-0.3-0.7-0.8-0.8-1.2c-0.5-1.6-0.1-2.9,1.1-4.6
		c1.2-1.7,1.6-1.1,1.6-1c0,0.1-1.3,1.2-1.7,2.3c-0.2,0.6-0.3,1.7,0.2,2.8c0.3,0.8,2.1,1.5,3.6,1.9c1.6,0.4,3.8,0.8,5.1,0.1
		c0.6-0.3,1-1,1.1-1.8c0-0.2,0-0.4,0-0.6c0-0.2,0,0-0.1-0.2c-0.2-0.2-0.5-0.5-0.9-0.7c-1.5-0.8-3-1.4-4.3-1.8c-2.5-0.7-4,1.2-4,0.9
		c0-0.2,1.3-2.6,4.3-2.2c1.4,0.3,3,0.7,4.8,1.6c0.4,0.2,0.9,0.5,1.3,1c0.2,0.2,0.5,0.8,0.5,1.1c0,0.3,0,0.6,0,0.9
		C57.9,26.3,57.2,27.3,56,28z"/>
	<path d="M62.7,35.3c3.3,1.3,6.1,1.7,7.9,3.7c1.7,2,2.1,3.7,1.9,3.7c-0.3,0.1-1.2-2.1-2.8-3.4c-1.6-1.2-4.4-1.4-7.7-2.6
		c-1.6-0.5-3.5-1.3-4.7-2.4c-1.3-1.1-3-3.3-3.8-4.3c-1.4-1.9-1-1.5-0.8-1.7c0.2-0.2,0.5,0,2.2,1.6c0.8,0.8,2,2.4,3.2,3.3
		C59.2,34.1,60.9,34.6,62.7,35.3z"/>
	<path d="M88.7,100.3c2.5,0.2,4.5-0.4,4.6-0.1c0.1,0.2-2,1.4-4.7,1.2c-2.6-0.2-4.5-1.4-4.5-1.7C84.1,99.3,86.2,100.1,88.7,100.3z"/>
</g>
</svg>
