<?xml version="1.0" encoding="utf-8"?>
<!-- Generator: Adobe Illustrator 18.0.0, SVG Export Plug-In . SVG Version: 6.00 Build 0)  -->
<!DOCTYPE svg PUBLIC "-//W3C//DTD SVG 1.1//EN" "http://www.w3.org/Graphics/SVG/1.1/DTD/svg11.dtd">
<svg version="1.1" id="Layer_1" xmlns="http://www.w3.org/2000/svg" xmlns:xlink="http://www.w3.org/1999/xlink" x="0px" y="0px"
	 viewBox="0 0 130 130" enable-background="new 0 0 130 130" xml:space="preserve">
<g>
	<path d="M31.9,48.8c-1,0.3-2,0.7-3.2,0.9c-1.4,0.2-2.4-0.2-3.4-0.4c-1-0.3-2-0.6-2.7-0.7c-0.5-0.2-1.1,0.4-1.6,1
		c-0.1,0.2-0.3,0.3-0.4,0.5l-0.1,0.1l0,0.1l0,0l0,0c0.2-0.1-1.5,0.7-0.8,0.4l0,0c-0.1,0-0.2,0-0.3,0c-0.4,0-0.8,0-1.3,0
		c-0.8,0-1.7,0.1-2.4,0.3c-1.5,0.3-2.9,0.8-4.1,1.5C9.3,53.7,8,55.7,7.3,57c-0.7,1.3-1,2.2-1.1,2.1c-0.1,0-0.1-0.9,0.5-2.4
		c0.6-1.5,1.7-3.7,4.3-5.4c1.2-0.8,2.8-1.5,4.4-1.9c0.8-0.2,1.7-0.3,2.6-0.4c0.5,0,0.9,0,1.4,0c0.1,0,0.2,0,0.4,0l0,0
		c0.7-0.3-0.9,0.5-0.8,0.4l0,0l0,0l0.1-0.1l0.1-0.2c0.1-0.2,0.3-0.4,0.5-0.6c0.3-0.4,0.7-0.8,1.2-1.1c0.4-0.4,1.3-0.6,1.9-0.5
		c1.2,0.2,2.1,0.5,3,0.8c0.9,0.3,1.9,0.5,2.6,0.4c0.9-0.2,1.9-0.5,2.9-0.9c4-1.4,7.8-2.9,11.3-4.2c1.7-0.7,3.5-1.2,4.8-1.9
		c1.4-0.7,2.7-1.5,3.8-2.4c4.3-3.4,6.2-6.4,6.5-6.2c0.2,0.1-1.3,3.4-5.6,7.2c-1.1,0.9-2.4,1.9-3.9,2.7c-1.6,0.8-3.2,1.4-4.9,2.1
		C39.8,45.8,36,47.4,31.9,48.8z"/>
	<path d="M52.3,34.4c1.1-4.3,0-6,0.5-6.1c0.5-0.1,1.5,2.8,0.9,6.6c-0.9,3.9-3.5,5.8-3.8,5.5C49.4,40.1,51.6,37.6,52.3,34.4z"/>
	<path d="M32.3,81.8c2,1.9,3.9,3.7,5.6,5.6c0.8,0.9,1.7,2,2.1,3c0.5,1,0.8,2,1,2.9c1,3.5,1.3,5.8,1.1,5.9c-0.3,0.1-1-2.1-2.3-5.4
		c-0.7-1.7-1.4-3.6-3.1-5.2C34.9,86.8,33,85,31,83.1c-2-2.1-3.9-3.7-5.2-6.2c-1.1-2.3-1.5-4.6-1.7-6.4c-0.4-3.7,0-6,0.2-6
		c0.3,0,0.4,2.3,1.1,5.8c0.4,1.7,0.9,3.8,1.9,5.8C28.3,77.9,30.4,79.8,32.3,81.8z"/>
	<path d="M36.6,98.9c0.6,6.4,2.8,11.2,2.4,11.4c-0.5,0.3-3.6-4.4-4.2-11.2c-0.6-6.8,1.4-12,1.8-11.9C37.2,87.3,36,92.6,36.6,98.9z"
		/>
	<path d="M38.4,112.5c-1.6,2.3-1.8,5.1-2,7c-0.2,2-0.3,3.2-0.6,3.2c-0.2,0-0.6-1.2-0.7-3.3c0-2-0.2-5.1,1.8-8
		c0.8-1.4,2.1-2.6,3.2-3.3c1-0.7,1.4-1.5,1.8-2.4c0.6-1.8,0.7-3.1,1-3.1c0.2,0,0.7,1.3,0.3,3.4c-0.2,1-0.8,2.5-2,3.4
		C40.1,110.4,39.2,111.3,38.4,112.5z"/>
	<path d="M21,100.3c0.8,3,1.3,6.3,0.5,9.2c-1,2.9-2.7,4.8-4,6.4c-2.8,3.1-4.9,4.6-5.1,4.5c-0.2-0.2,1.6-2,4.1-5.3
		c1.2-1.6,2.7-3.6,3.4-6c0.6-2.4,0.1-5.3-0.6-8.3c-0.2-0.8-0.4-1.5-0.4-2.5c0.1-1.4,0.8-1.8,1.2-2.5c0.9-1.2,1.9-2.3,2.8-3.3
		c1.8-2,3.6-3.8,4.8-5.3c2.1-3.3,2.4-6,2.7-5.9c0.2,0,0.5,2.7-1.6,6.6c-1.2,1.8-2.9,3.6-4.6,5.7c-0.9,1-1.8,2.1-2.6,3.3
		c-0.4,0.5-0.9,1.3-0.8,1.5C20.6,98.7,20.9,99.5,21,100.3z"/>
	<path d="M48.9,72.7c-0.9,1.6-2,3.2-3.5,4.2c-1.5,1-3,1.3-4.2,1.4c-2.5,0.2-4-0.3-3.9-0.6c0-0.3,1.5-0.2,3.7-0.7
		c1.1-0.3,2.4-0.7,3.5-1.6c1.1-0.8,2-2.1,2.9-3.7c3.3-6.3,5.3-11.9,5.9-11.7C53.6,60.3,52.4,66.1,48.9,72.7z"/>
	<path d="M54.4,96.5c-2.6,2.1-5.2,2.7-5.3,2.3c-0.1-0.3,2.1-1.5,4.4-3.3c2.1-2,3.2-4.3,3.6-4.1C57.4,91.4,56.9,94.2,54.4,96.5z"/>
	<path d="M56.3,107c0.6,0.4,1.2,0.9,1.6,1.6c0.3,0.6,0.5,1.2,0.6,1.6c0.2,0.9,0.1,1.5,0,1.6c-0.2,0-0.5-0.5-0.9-1.3
		c-0.4-0.9-0.8-1.7-2-2.4c-0.5-0.4-1.1-0.7-1.6-1c-0.6-0.3-1.1-0.9-1.3-1.3c-0.5-0.9-0.6-1.5-0.4-1.5c0.2-0.1,0.6,0.3,1.2,0.9
		c0.3,0.3,0.6,0.6,1.1,0.8C55.1,106.2,55.7,106.6,56.3,107z"/>
	<path d="M98.7,47.1c1,0.3,2,0.7,2.9,0.9c0.7,0.1,1.7-0.1,2.6-0.4c1-0.3,1.9-0.6,3-0.8c0.6-0.1,1.5,0.1,1.9,0.5
		c0.5,0.3,0.8,0.7,1.2,1.1c0.2,0.2,0.3,0.4,0.5,0.6l0.1,0.2l0.1,0.1l0,0l0,0c0.2,0.1-1.5-0.7-0.8-0.4l0,0c0.1,0,0.3,0,0.4,0
		c0.5,0,1,0,1.4,0c0.9,0.1,1.8,0.2,2.6,0.4c1.7,0.4,3.2,1,4.4,1.9c2.5,1.7,3.7,3.9,4.3,5.4c0.6,1.5,0.6,2.4,0.5,2.4
		c-0.1,0-0.4-0.8-1.1-2.1c-0.8-1.3-2-3.2-4.3-4.6c-1.1-0.7-2.5-1.2-4.1-1.5c-0.8-0.1-1.6-0.2-2.4-0.3c-0.4,0-0.8,0-1.3,0
		c-0.1,0-0.2,0-0.3,0l0,0c0.7,0.4-1-0.5-0.8-0.4l0,0l0,0l0-0.1l-0.1-0.1c-0.1-0.2-0.3-0.3-0.4-0.5c-0.6-0.6-1.1-1.2-1.6-1
		c-0.8,0.1-1.7,0.5-2.7,0.7c-1,0.3-2.1,0.6-3.4,0.4c-1.1-0.2-2.1-0.6-3.2-0.9c-4.1-1.4-7.9-3-11.3-4.4c-1.7-0.7-3.4-1.3-4.9-2.1
		c-1.5-0.8-2.8-1.8-3.9-2.7c-4.3-3.9-5.8-7.2-5.6-7.2c0.2-0.2,2.2,2.8,6.5,6.2c1.1,0.8,2.3,1.7,3.8,2.4c1.4,0.7,3.1,1.2,4.8,1.9
		C90.9,44.2,94.7,45.7,98.7,47.1z"/>
	<path d="M76.3,35c-0.7-3.8,0.4-6.7,0.9-6.6c0.5,0.1-0.2,3.2,0.4,6.5c0.7,3.1,3,5.3,2.6,5.6C79.8,40.8,77.2,38.9,76.3,35z"/>
	<path d="M99,83.1c-2,2-4,3.7-5.6,5.4c-1.7,1.5-2.4,3.5-3.1,5.2c-1.3,3.4-2,5.5-2.3,5.4c-0.2-0.1,0-2.3,1.1-5.9
		c0.3-0.9,0.6-1.9,1-2.9c0.4-1,1.2-2.2,2.1-3c1.7-1.8,3.6-3.6,5.6-5.6c1.9-1.9,4-3.8,5-5.6c1.1-2,1.5-4.1,1.9-5.8
		c0.7-3.5,0.8-5.8,1.1-5.8c0.2,0,0.6,2.3,0.2,6c-0.2,1.8-0.6,4.1-1.7,6.4C103,79.3,101,81,99,83.1z"/>
	<path d="M95.3,99.1c-0.6,6.8-3.8,11.6-4.2,11.2c-0.4-0.2,1.8-5,2.4-11.4c0.6-6.3-0.6-11.6,0-11.7C93.8,87.1,95.8,92.3,95.3,99.1z"
		/>
	<path d="M93.1,111.5c2,2.9,1.8,6,1.8,8c-0.1,2.1-0.5,3.3-0.7,3.3c-0.3,0-0.4-1.3-0.6-3.2c-0.3-1.9-0.4-4.7-2-7
		c-0.8-1.2-1.7-2.1-2.7-3c-1.2-0.9-1.8-2.4-2-3.4c-0.4-2.1,0.1-3.4,0.3-3.4c0.3,0,0.3,1.3,1,3.1c0.3,0.9,0.8,1.8,1.8,2.4
		C91,109,92.2,110.2,93.1,111.5z"/>
	<path d="M110.8,100.7c-0.8,3-1.2,5.9-0.6,8.3c0.7,2.4,2.2,4.4,3.4,6c2.5,3.2,4.3,5.1,4.1,5.3c-0.2,0.2-2.3-1.3-5.1-4.5
		c-1.3-1.6-3-3.5-4-6.4c-0.9-2.9-0.3-6.2,0.5-9.2c0.2-0.7,0.4-1.6,0.4-2.1c0.1-0.2-0.4-1-0.8-1.5c-0.8-1.2-1.7-2.2-2.6-3.3
		c-1.7-2.1-3.4-3.9-4.6-5.7c-2.1-3.9-1.8-6.6-1.6-6.6c0.3-0.1,0.6,2.6,2.7,5.9c1.2,1.5,3,3.3,4.8,5.3c0.9,1,1.9,2.1,2.8,3.3
		c0.4,0.7,1,1.1,1.2,2.5C111.2,99.2,110.9,99.9,110.8,100.7z"/>
	<path d="M82.7,71.8c0.9,1.6,1.7,2.9,2.9,3.7c1.1,0.8,2.4,1.3,3.5,1.6c2.2,0.5,3.7,0.5,3.7,0.7c0,0.2-1.4,0.8-3.9,0.6
		c-1.2-0.1-2.8-0.5-4.2-1.4c-1.5-1-2.6-2.6-3.5-4.2c-3.5-6.6-4.7-12.4-4.3-12.5C77.4,59.9,79.4,65.5,82.7,71.8z"/>
	<path d="M76.5,95.4c2.3,1.8,4.6,3,4.4,3.3c-0.1,0.4-2.7-0.2-5.3-2.3c-2.5-2.3-3-5.1-2.7-5.2C73.3,91.1,74.4,93.5,76.5,95.4z"/>
	<path d="M74.5,108.1c-1.1,0.7-1.5,1.5-2,2.4c-0.4,0.8-0.7,1.3-0.9,1.3c-0.2,0-0.2-0.6,0-1.6c0.1-0.5,0.2-1,0.6-1.6
		c0.4-0.7,1-1.2,1.6-1.6c0.6-0.4,1.2-0.7,1.8-1c0.5-0.2,0.8-0.5,1.1-0.8c0.6-0.6,1-1,1.2-0.9c0.2,0.1,0.1,0.7-0.4,1.5
		c-0.2,0.4-0.7,1-1.3,1.3C75.5,107.4,75,107.7,74.5,108.1z"/>
	<ellipse cx="65.5" cy="78" rx="0.9" ry="22.6"/>
	<path d="M66.4,118.6c0,3.8-0.4,4.2-0.9,4.2c-0.5,0-0.9-0.4-0.9-4.2c0-3.8,0.4-6.8,0.9-6.8C66,111.8,66.4,114.9,66.4,118.6z"/>
	<path d="M66.1,32.3c4.5-0.1,8.5-2.4,10.8-5.5c2.4-3.1,3.3-6.7,3.7-9.7c0.7-6.2,1.2-10,1.5-9.9c0.3,0,0.2,3.9-0.2,10.1
		c-0.2,3.1-1,7.1-3.6,10.6c-2.5,3.5-7,6.2-12.1,6.4c-2.5,0.1-5-0.3-7.1-1.3c-2.2-1-3.9-2.6-5.3-4.2c-2.7-3.4-4.2-6.8-5.2-9.8
		C46.7,12.6,47.8,8.6,48,8.7c0.3,0-0.2,3.9,1.8,9.7c1.1,2.8,2.8,6.2,5.3,9.1C57.6,30.5,61.6,32.7,66.1,32.3z"/>
	<path d="M46.7,17.3c0.3,1.9,0.9,3.7,1.6,4.4c0.9,0.8,1.6,1.1,1.6,1.3c0,0.2-1,0.5-2.4-0.3c-1.5-1-2.2-3-2.6-5.1
		c-0.2-1.1-0.3-2.1-0.2-3.2c0.2-1,0.6-1.9,1.1-2.5c1-1.2,2-1.4,2.1-1.2C48.1,11.2,45.4,13.3,46.7,17.3z"/>
	<path d="M85.8,17.6c-0.4,2.1-1.1,4.1-2.6,5.1c-1.4,0.8-2.4,0.5-2.4,0.3c0-0.3,0.8-0.5,1.6-1.3c0.7-0.7,1.2-2.5,1.6-4.4
		c1.3-4-1.4-6.1-1.2-6.5c0.1-0.2,1.1,0,2.1,1.2c0.5,0.6,0.9,1.5,1.1,2.5C86.1,15.6,85.9,16.6,85.8,17.6z"/>
</g>
</svg>
