<?xml version="1.0" encoding="utf-8"?>
<!-- Generator: Adobe Illustrator 18.0.0, SVG Export Plug-In . SVG Version: 6.00 Build 0)  -->
<!DOCTYPE svg PUBLIC "-//W3C//DTD SVG 1.1//EN" "http://www.w3.org/Graphics/SVG/1.1/DTD/svg11.dtd">
<svg version="1.1" id="Layer_1" xmlns="http://www.w3.org/2000/svg" xmlns:xlink="http://www.w3.org/1999/xlink" x="0px" y="0px"
	 viewBox="0 0 130 130" enable-background="new 0 0 130 130" xml:space="preserve">
<g>
	<path d="M57.5,45.9c19.1-0.9,34.7-3.1,34.8-2.3c0.1,0.5-15.3,3.8-34.8,4.7c-0.6,0-1.2,0-1.8,0l-0.9,0c-0.3,0-0.3,0-0.5,0.1
		c-0.8,0.3-1.6,1.2-2.4,2c-0.8,0.8-1.6,1.7-2.5,2.6c-0.3,0.2-0.5,0.4-0.9,0.7c-0.3,0.3-1.3,0.3-1.6,0c-0.7-0.4-1.1-0.8-1.5-1.2
		c-0.8-0.8-1.6-1.6-2.3-2.4c-0.3-0.4-0.7-0.8-1-1.2l-0.5-0.6L41.5,48L41.5,48l0,0l0,0c0.3,0.1-0.7-0.3,0.7,0.3l0,0l-0.4,0
		c-1.9,0-3.6,0-5.2-0.2c-6.4-0.5-10.2-1.9-10.1-2.1c0.1-0.4,3.9,0.4,10.2,0.5c1.6,0,3.3,0,5.1-0.1l0.3,0l0,0
		c1.4,0.7,0.4,0.2,0.7,0.3l0,0l0,0l0.1,0.1l0.1,0.1l0.5,0.6c0.3,0.4,0.7,0.8,1,1.1c0.7,0.8,1.4,1.5,2.2,2.2c0.4,0.3,0.8,0.7,1.1,0.8
		c0,0,0.1,0,0,0c0,0-0.1,0.4-0.1,0.6c0-0.2,0-0.4-0.1-0.6c-0.1,0,0,0,0,0c0.1,0,0.3-0.2,0.5-0.4c0.7-0.7,1.5-1.7,2.4-2.5
		c0.9-0.9,1.7-1.9,3.2-2.5c0.3-0.2,0.9-0.2,1.3-0.2l0.9,0C56.3,45.9,56.9,45.9,57.5,45.9z"/>
	<path d="M6.7,57.1c-2.2,6.3-1.4,13.3-0.3,19.1c0.6,2.9,1.5,5.6,2.5,8.1c0.5,1.2,1.1,2.4,1.6,3.4c0.3,0.5,0.6,1,0.9,1.5l0.2,0.4
		l0.1,0.2l0,0c0-0.2,0.3,1.6,0.1,0.8l0,0l0,0l0,0.1l-0.2,0.8c-2.3,8.9-1.3,14.7-1.6,14.7c-0.2,0.1-1.9-5.8,0.2-15.2l0.2-0.9l0-0.1
		l0,0l0,0c-0.1-0.7,0.2,1,0.1,0.8l0-0.1l-0.1-0.2l-0.3-0.4c-0.4-0.5-0.7-1-1-1.6c-0.6-1.1-1.3-2.3-1.8-3.5c-1.1-2.5-2.1-5.3-2.8-8.4
		c-0.7-3.1-1.1-6.4-1.2-9.8c-0.2-3.4,0.2-7.2,1.5-10.7c1.2-3.5,3.3-6.6,5.8-8.8c1.3-1.1,2.6-2,4-2.7c1.4-0.8,3.1-1,3.8-1.6
		c0.2-0.2,0.5-0.4,0.7-0.7c0.4-0.4,1.1-0.6,1.5-0.6c0.9-0.1,1.6,0.1,2.3,0.3c0.1,0,0.2,0.1,0.3,0.1l0,0c-1.2,0-0.3,0-0.6,0l0,0
		l0.1,0l0.1,0l0.5-0.2l0.9-0.3c0.6-0.2,1.2-0.4,1.8-0.7c2.3-0.9,4.5-1.8,6.4-2.7c7.7-3.6,11.8-7.2,12-7c0.2,0.2-3.7,4.4-11.4,8.5
		c-1.9,1-4.1,2-6.4,3c-0.6,0.2-1.2,0.5-1.8,0.7L23.9,44l-0.5,0.2l-0.1,0l-0.1,0l0,0c-0.3,0,0.6,0-0.6,0l0,0c-0.1,0-0.1,0-0.2-0.1
		c-0.6-0.2-1.2-0.3-1.6-0.2c-0.2,0-0.3,0.1-0.4,0.2c-0.2,0.2-0.5,0.5-0.9,0.8c-1.6,1.2-2.9,1.1-4.1,1.9c-1.2,0.6-2.5,1.5-3.6,2.5
		C9.6,51.3,7.8,53.9,6.7,57.1z"/>
	<path d="M22.2,83.7c1.8,3.3,4.8,5,7.8,5.6c3,0.6,5.8,0.4,8.1-0.1c4.6-1.1,7.1-3,7.3-2.7c0.2,0.2-2.1,2.7-6.9,4.3
		c-2.4,0.8-5.5,1.2-8.8,0.6c-3.3-0.4-7.2-2.6-9.2-6.4c-4.1-7.6-3.6-15.8-2.6-21c1-5.4,2.3-8.4,2.6-8.3c0.3,0.1-0.5,3.3-1.1,8.6
		C18.6,69.3,18.6,76.9,22.2,83.7z"/>
	<path d="M25.3,97.4c0.9,4.7,0.6,9,0.2,8.9c-0.4-0.1-0.8-3.8-1.7-8.7c-0.5-5.2,1.4-9.1,1.7-8.8C25.9,88.9,24.8,92.7,25.3,97.4z"/>
	<path d="M73.2,90.6c7-0.8,12.7-4.7,16.3-8c3.6-3.3,5.4-6,5.6-5.8c0.2,0.2-1.1,3.2-4.6,7C87,87.6,81,92.1,73.4,93
		c-7.6,0.8-14.2-1.7-18.7-3.6c-4.5-2.1-7-4-6.8-4.3c0.1-0.3,2.8,1.1,7.3,2.7C59.7,89.3,66.1,91.3,73.2,90.6z"/>
	<path d="M46.2,97.2c1.6,4.9,1,9.2,0.6,9.1c-0.5,0-0.6-4-2.1-8.5c-0.9-2.7-0.2-5.2,0.3-6.7c0.5-1.6,1.1-2.4,1.3-2.3
		c0.2,0.1,0,1.1-0.2,2.7C45.8,92.9,45.4,95.1,46.2,97.2z"/>
	<path d="M46.1,70.3c-0.2,5.8,1,10.6,0.4,10.8c-0.5,0.3-2.8-4.4-2.5-10.9c0.4-6.4,2.7-10.9,3.2-10.7C47.8,59.7,46.4,64.5,46.1,70.3z
		"/>
	<path d="M96.8,93.5c3.3,4.4,4.8,9.6,4.6,13.4c-1-3.3-3.1-7.7-6.2-11.9c-1.9-2.5-2.2-5.7-1.9-8.2c0.2-2.5,0.8-4.7,1.2-6.3
		c0.6-3.4-0.5-5.4-0.3-5.5c0.2-0.3,2.1,1.7,1.8,5.8C95.6,84.3,94,89.6,96.8,93.5z"/>
	<path d="M99.2,99.2c-2.2,4.2-4.6,7-5.1,6.7c-0.5-0.4,1.1-3.8,3.2-7.8C98.4,95.8,99.7,98.2,99.2,99.2z"/>
	<path d="M125.2,105.9c0.1-2.4,0.2-5.4,0-8.5c0-8.6-3.4-14.6-2.9-15c0.2-0.2,1.5,1.1,2.7,3.7C126.2,88.7,128.2,101.7,125.2,105.9z"
		/>
	<path d="M107.8,45.9c-2.6-1.3-5.2-2.2-7.9-2.7c-1.3-0.3-2.6-0.5-3.9-0.6c-0.3,0-0.6-0.1-0.9-0.1l-0.1,0l0,0l0,0
		c-0.3-0.1,0.6,0.2-0.6-0.2l-0.1-0.1l-0.2-0.1l-0.4-0.3c-0.5-0.4-1.1-0.8-1.6-1.2c-4.2-2.9-8.2-5.5-11.7-6.8c-2.8-1-5.2-1.8-7.1-2.3
		c0.2-0.1,0.1-1.5,0.7-1c1.9,0.4,4.2,0.9,6.9,1.7c3.8,1.2,7.9,3.7,12.3,6.5c0.5,0.4,1.1,0.8,1.6,1.1l0.4,0.3l0.2,0.2l0.1,0.1
		c-1.1-0.4-0.3-0.1-0.5-0.2h0l0,0l0.1,0c0.4,0,0.7,0,1,0.1c1.4,0.1,2.7,0.3,4.1,0.6c2.8,0.6,5.6,1.5,8.3,2.8
		c5.5,2.7,10,7.5,12.1,12.9c2.2,5.3,2.8,10.4,3.2,14.7c0.6,8.5-0.2,13.8-0.5,13.8c-0.3,0,0-5.3-1-13.6c-0.5-4.1-1.4-9.1-3.5-13.9
		C117,52.7,113,48.5,107.8,45.9z"/>
	<path d="M71.1,31.4c-1.6,4.5-2.7,8.3-3.1,8.2c-0.4-0.1-0.1-4.2,1.6-8.9c1.6-4.7,4-8,4.5-7.6C74.3,23.4,72.7,26.8,71.1,31.4z"/>
	<path d="M44.3,32.8c-1.1,5-3.5,8.1-3.9,7.8c-0.6-0.3,1.4-3.2,2.3-7.6c0.7-4.4,0-9.1,0.6-9.2C43.8,23.7,45.1,27.6,44.3,32.8z"/>
	<path d="M73.4,25c0.4,2,0.5,4.9,2,7.9c1.2,2.4,2.7,3.8,4.2,4.8c1.5,1,3.7,1.6,3.6,2c-0.5,0.7-6.5-1.8-8.4-5.1
		c-1.9-3.3-2.6-5.7-2.7-7.8C71.9,25.2,73.1,23.6,73.4,25z"/>
</g>
</svg>
