<?xml version="1.0" encoding="utf-8"?>
<!-- Generator: Adobe Illustrator 18.0.0, SVG Export Plug-In . SVG Version: 6.00 Build 0)  -->
<!DOCTYPE svg PUBLIC "-//W3C//DTD SVG 1.1//EN" "http://www.w3.org/Graphics/SVG/1.1/DTD/svg11.dtd">
<svg version="1.1" id="Layer_1" xmlns="http://www.w3.org/2000/svg" xmlns:xlink="http://www.w3.org/1999/xlink" x="0px" y="0px"
	 viewBox="0 0 130 130" enable-background="new 0 0 130 130" xml:space="preserve">
<g>
	<path d="M58.1,122.7c2.3-0.8,4.5,0.7,5.9,1.1c1.6,0.5,3.3,0.5,5,0.2c1.7-0.2,3.5-0.8,5.3-0.8c0.8,0,1.6-0.1,2.3-0.3
		c0.2,0,0.4-0.1,0.5-0.2c0.1,0,0.2-0.1,0.2-0.1c1.7,0.1,0.5,0,0.9,0.1l0,0l0,0l0.1,0l0.1,0.1c0.3,0.2,0.6,0.3,1,0.5
		c1.4,0.5,2.6,0.4,3.7-0.5c1-0.7,1.8-2.3,1.7-3c0.3,0.1-0.5-0.1-1.1,0c-0.6,0.1-1.3,0.2-1.9,0.3l-0.5,0.1l-0.2,0.1l-0.1,0l-0.1,0
		l0,0c0.5,0.1-0.7-0.1-0.6-0.1l0,0l-0.8-0.6c-0.5-0.3-1.1-0.7-1.5-0.9c-2.5-1.1-4.1-2.4-5.9-3c-1.9-0.8-3.4-1.7-4.5-2.5
		c-2.3-1.6-3.3-2.8-3.2-2.9c0.1-0.1,1.3,0.9,3.6,2.3c1.2,0.7,2.7,1.5,4.5,2.1c1.9,0.5,4,2,6.1,2.8c0.7,0.3,1.2,0.6,1.8,1
		c0.3,0.2,0.6,0.4,0.8,0.6l0,0c0.1,0-1.1-0.2-0.6-0.1l0,0l0.1,0l0.1,0l0.3-0.1l0.5-0.1c0.7-0.2,1.4-0.3,2.1-0.4c0.4,0,0.8-0.1,1.2,0
		c0.2,0,0.5,0.1,0.8,0.2c0.4,0.2,0.6,0.6,0.7,0.9c0.3,2.2-0.9,3.5-2.2,4.7c-1.3,1.2-3.6,1.6-5.3,0.8c-0.4-0.2-0.8-0.4-1.3-0.6
		l-0.2-0.1l-0.1-0.1l0,0l0,0c0.4,0-0.9-0.1,0.8,0.1c-0.2,0.1-0.3,0.1-0.4,0.2c-0.2,0.1-0.4,0.1-0.7,0.2c-0.9,0.2-1.8,0.3-2.7,0.4
		c-1.6,0-3.2,0.5-5.1,0.8c-1.8,0.3-3.8,0.3-5.8-0.3c-2-0.7-3.4-1.6-4.8-1.1c-0.8,0.2-1.8,0.7-2.9,0.8c-1,0.1-2,0.1-3.1-0.1
		c-2.2-0.4-3.9-2.3-4.3-4.3c-0.1-0.5-0.3-1,0-1.9c0.2-0.5,0.4-0.9,0.7-1.3c0.4-0.8,0.9-1.5,1.3-2.3c0.9-1.5,1.7-2.9,2.6-4.3
		c0.5-0.8,0.7-1.1,0.8-1.9c0.1-0.7,0.1-1.5,0.1-2.3c0-1.5-0.1-3-0.1-4.5c-0.1-2.9-0.2-5.6-0.5-8c-1-9.8-2.5-15.8-2.2-15.8
		c0.2-0.1,2.1,5.8,3.5,15.7c0.3,2.5,0.6,5.2,0.7,8.1c0.1,1.5,0.2,3,0.2,4.5c0,0.8,0,1.6-0.1,2.5c0,0.8-0.6,2-1,2.6
		c-0.8,1.4-1.7,2.9-2.5,4.3c-0.4,0.7-0.8,1.5-1.3,2.3c-0.2,0.4-0.4,0.8-0.5,1.1c0,0,0,0.4,0.1,0.8c0.4,1.5,1.5,2.7,3,3
		c0.7,0.2,1.6,0.2,2.4,0.1C56.4,123.4,57.1,123.1,58.1,122.7z"/>
	<path d="M64.6,113.5c-1.1,0.6-2,0.7-3.1,0.4c-1.3-0.7-1.2-1.6-1.3-2.2c-0.1-1.2,0.3-1.9,0.5-1.9c0.3,0,0.4,0.7,0.7,1.6
		c0.1,0.4,0.5,1,0.7,0.9c0.3,0.1,1.1,0,1.4-0.3c0.5-0.1,0-2-0.3-2.8c-0.3-1-0.6-1.7-0.3-1.8c0.2-0.1,0.8,0.3,1.5,1.2
		c0.3,0.5,0.7,1.1,1,1.9c0.1,0.4,0.2,0.9,0.2,1.4C65.5,112.3,65.2,113.1,64.6,113.5z"/>
	<path d="M71.5,71.3c1.4-5.1,2.4-10.2,1.5-14.6c-0.9-4.5-2.5-8.3-4.5-11.2c-1-1.4-1.8-3.1-1.9-4.6c-0.2-1.4-0.2-2.7-0.1-3.7
		c0.1-2,0.4-3.1,0.5-3.1c0.1,0,0.1,1.1,0.2,3.1c0.2,2,0,4.9,2.4,7.5c2.2,2.9,4.1,6.9,5.1,11.6c1.1,4.9,0,10.2-1.4,15.4
		C71.8,77,70,81.9,68.8,86.3c-1.2,4.4-1.9,8.6-2.5,12.1c-1,7-1.2,11.4-1.4,11.4c-0.2,0-0.6-4.4,0.1-11.5c0.4-3.5,0.9-7.8,2.1-12.4
		C68.3,81.3,70.1,76.4,71.5,71.3z"/>
	<path d="M72.5,24.8c6-10.6,3.2-20.6,3.9-20.6c0.2-0.1,1,2.3,1.3,6.3c0.1,2,0.1,4.4-0.5,7c-0.6,2.6-1.8,5.3-3,8
		c-2.7,5.3-3.3,10.5-3.7,14.4c-0.4,3.9-0.4,6.3-0.7,6.3c-0.2,0-0.6-2.4-0.6-6.4C69.2,36,69.7,30.2,72.5,24.8z"/>
	<path d="M50,25.4c0.7,1.4,1.3,2.9,1.8,4.4c0.5,1.4,0.6,3.3,0.4,4.6c-0.4,2.9-1.8,5.1-1.8,7c-0.1,1.9,0.6,3.4,1,4.5
		c0.5,1,0.8,1.6,0.7,1.7c-0.1,0.1-0.6-0.3-1.3-1.3c-0.6-1-1.6-2.5-1.7-4.8c0-2.4,1.2-4.6,1.5-7.2c0.5-2.5-0.9-5.1-2.2-8
		c-1.4-2.8-2.8-5.5-3.7-8.2c-1.1-2.7-1-5.5-0.8-7.5c0.4-4.2,1-6.7,1.2-6.7c0.3,0,0.1,2.6,0.1,6.7c0,2.1,0,4.4,1.1,6.8
		C47.2,19.9,48.6,22.6,50,25.4z"/>
	<path d="M48.9,67.9c0.4,4.6,1.7,9,4.1,12.1c0.6,0.8,1.3,1.4,2,1.9c0.3,0.2,0.7,0.4,1,0.4c0.1,0,0-0.1,0.1,0.1c0-0.2,0-0.1,0.1-0.2
		c0.1-0.1,0.3-0.2,0.4-0.3c1.1-1.2,1.9-2.8,2.7-4.1c2.9-5.5,4.4-9.1,4.6-9c0.2,0.1-0.8,3.8-3.5,9.6c-0.7,1.4-1.4,3-2.7,4.6
		c-0.3,0.3-0.8,1-1.8,0.9c-0.7-0.1-1.2-0.3-1.7-0.6c-1-0.6-1.7-1.3-2.5-2.2c-2.8-3.4-4.3-8.1-4.7-13c-0.3-4.9,0.2-9.5,1.1-13.7
		c0.5-2.1,1.2-4,2.3-5.7c1.1-1.7,2.7-2.9,4.4-3.3c1.5-0.5,3.2-0.6,4.5-0.1c1.3,0.4,2.2,1.1,2.9,1.6c1.4,1.1,2,1.9,1.9,2
		c-0.1,0.1-0.8-0.5-2.3-1.4c-1.5-0.8-3.8-2.1-6.6-0.9c-2.8,0.9-4.6,4.2-5.4,8.2C49,58.7,48.6,63.2,48.9,67.9z"/>
	<path d="M55.6,23.6c0-8.8,1.5-15.7,2-15.6c0.6,0.1-0.2,7.1-0.2,15.6c0.2,8.5,2.3,15.2,1.7,15.4C58.8,39.1,55.8,32.5,55.6,23.6z"/>
	<path d="M59.5,38.1c1.5,0.7,1.7,1.6,2.1,2.3c0.4,0.7,0.6,1.4,0.8,2c0.3,1.2,0.3,1.9,0.1,2c-0.2,0.1-0.7-0.5-1.3-1.5
		c-0.3-0.5-0.6-1.1-1-1.7c-0.3-0.6-1-1.4-1.1-1.4c0.2-0.1-0.7,0.4-1.1,0.9c-0.5,0.5-0.9,1.1-1.3,1.5c-0.7,0.9-1.3,1.4-1.5,1.3
		c-0.2-0.1-0.1-0.9,0.4-2c0.2-0.6,0.6-1.2,1.1-1.9c0.3-0.3,0.5-0.7,0.9-1C57.9,38.4,58.5,37.8,59.5,38.1z"/>
</g>
</svg>
