<?xml version="1.0" encoding="utf-8"?>
<!-- Generator: Adobe Illustrator 18.0.0, SVG Export Plug-In . SVG Version: 6.00 Build 0)  -->
<!DOCTYPE svg PUBLIC "-//W3C//DTD SVG 1.1//EN" "http://www.w3.org/Graphics/SVG/1.1/DTD/svg11.dtd">
<svg version="1.1" id="Layer_1" xmlns="http://www.w3.org/2000/svg" xmlns:xlink="http://www.w3.org/1999/xlink" x="0px" y="0px"
	 viewBox="0 0 130 130" enable-background="new 0 0 130 130" xml:space="preserve">
<g>
	<path d="M17.9,101.5c-1.2-5.7,0.1-10.8,1.6-14.3c1.1-2.1,2.2-3.8,3-5.2l-0.8-1.2c-1.2,1.3-2.5,3.2-3.7,5.7c-0.9,1.8-1.9,4-2.5,6.6
		c-0.6,2.7-0.5,5.7,0,8.7c0.4,3,1.8,6,2.5,8c0.2,0.6-0.3,2.3-0.2,3.3c0,1.2,0,2.3,0,3.3c0.3,4,0.9,6.3,1.2,6.3
		c0.3,0,0.2-2.5,0.4-6.3c0-1,0.1-2,0.2-3.1c0-1.2,0.6-1.9,0.4-3.9C19.4,106.7,18.3,104.4,17.9,101.5z"/>
	<path d="M49.6,42.5C40.8,42,32.2,45,27.7,51.3c-4.7,6-7.5,12.7-7.7,18.4c0.2,5.6,2.1,10.3,3.1,13.3c1.2,3.1,2.1,4.7,2,4.7
		c-0.1,0.1-1.3-1.4-2.8-4.4c-1.4-3.1-3.5-7.4-3.9-13.7c0.1-6.2,2.8-13.3,7.7-19.7c4.7-6.9,14.4-10.3,23.5-9.8c1.9,0.2,3.9-0.8,6-1.5
		c1.1-0.4,2.1-0.8,3.3-1c1.4-0.3,2.7,0.1,3.7,0.4c1.1,0.3,2.1,0.7,3.1,1l1.5,0.6c0.1,0.1,0.7,0.3,0.5,0.2l0.8,0.1c2,0.3,4,0.7,6,1
		c7.7,1.4,14.7,2.9,20.4,4.6c2.9,0.8,5.5,1.9,7.6,2.7c2.2,0.8,4.1,1.4,5.7,1.8c3.2,0.8,5,0.6,5,0.7c0.1,0.2-1.9,0.7-5.2,0.1
		c-1.7-0.3-3.7-0.8-5.9-1.5c-2.3-0.8-4.7-1.7-7.6-2.4c-5.7-1.5-12.6-2.8-20.4-4c-1.9-0.3-3.9-0.6-5.9-0.9L67.4,42
		c-0.7-0.2-0.6-0.2-1-0.3L65,41.1c-1-0.3-2-0.7-2.9-1c-1-0.3-1.9-0.6-2.6-0.3c-0.9,0.2-1.9,0.6-3,1C54.4,41.5,52.3,42.7,49.6,42.5z"
		/>
	<path d="M96,23.6c-0.9,4-3.2,6.7-4.9,8.5c-1.8,1.7-3.2,2.4-3.4,2.2c-0.2-0.2,0.8-1.4,2.2-3.2c1.4-1.9,3.2-4.6,3.9-7.8
		c1.2-7,1-13,1.7-13C96,10.1,97.3,16.1,96,23.6z"/>
	<path d="M82.9,29.5c2.5-1.1,4.8-2.1,6.8-3.1c1.9-1,4.1-2.1,4.4-3.1c1-3.2,1.1-5.5,1.4-5.5c0.3,0,0.8,2.2,0.1,5.9
		c-0.8,2.5-3,3.3-4.9,4.6c-2.1,1.2-4.4,2.3-6.9,3.4c-5,2.1-9.4,3.9-12.2,5.9c-2.9,1.9-4.5,3.4-4.8,3.1c-0.2-0.2,0-1.2,2.8-3.6
		C72.3,34.6,78,31.6,82.9,29.5z"/>
	<path d="M103.2,39.1c2.3,6,4.1,10.9,3.6,11.2c-0.6,0.3-3.3-4.3-5.7-10.3c-2.4-6-3.9-11-3.3-11.3C98.4,28.4,100.8,33,103.2,39.1z"/>
	<path d="M55.4,106.6c-1.4,2.7-2.9,5.2-4,7.5c-1.1,2.2-1.1,4.5-1.1,6.4c0.1,3.9,0.5,6.4,0.2,6.4c-0.3,0.1-1.3-2.3-1.8-6.3
		c-0.2-2-0.4-4.7,0.8-7.4c1.1-2.6,2.5-5,3.9-7.7c0.7-1.3,1.3-2.7,1.8-3.9c0.4-1.1,0.6-2.5,0.7-3.7c0.2-2.5,0.2-4.9,0.1-6.9
		c-0.1-4-0.2-6.4,0.1-6.5c0.3,0,1,2.4,1.5,6.4c0.2,2,0.5,4.4,0.3,7.2c-0.1,1.4-0.2,2.8-0.7,4.4C56.7,103.8,56.1,105.2,55.4,106.6z"
		/>
	<path d="M89.4,100.6c-2.6-0.2-5.2-0.5-7.7-1.2c-2.5-0.6-4.7-1.8-6.7-3.1c-4-2.5-6.4-6.3-8.4-8.7c-4.2-5.2-9.1-5-8.9-5.4
		c0-0.1,1.1-0.3,3,0.1c1.9,0.4,4.7,1.6,7.1,4.2c2.4,2.6,4.6,5.9,8.3,8c3.6,2.5,8.2,3.4,13.3,3.8c5.1,0.3,10,0.1,14.4-0.3
		c2.2-0.2,4.3-0.5,6.2-0.9c1.9-0.4,5.1-0.1,4.6,0.2c-1.2,0.9-2.8,1.2-4.2,1.6c-2,0.5-4.1,0.9-6.4,1.2
		C99.7,100.6,94.7,100.9,89.4,100.6z"/>
	<path d="M72.7,111.6c2.9,8.7,6.7,15.1,6.4,15.3c-0.7,0.6-5.6-5.6-8.6-14.6c-2.9-9-3.6-16.5-3-16.6C68.2,95.6,69.9,102.9,72.7,111.6
		z"/>
	<path d="M64.1,110.2c5.1,3.6,10.1,5.8,9.8,6.5c-0.2,0.5-5.5-0.7-11.2-4.7c-5.4-4.5-7.5-9.7-7.1-9.9
		C56.2,101.7,59.3,106.3,64.1,110.2z"/>
	<path d="M102.6,15.8c2.1,1.3,4,2.8,5.5,4.3c1.6,1.6,2.6,2.5,4.1,2.6c3.1,0.5,1.5,1.7-0.2,1.6c-0.8,0-1.9-0.2-2.9-0.7
		c-1-0.6-1.7-1.3-2.5-1.9c-1.6-1.3-3.4-2.6-5.4-3.9c-4.3-2.7-7.1-6.6-8.4-9.6c-1.4-3-1.6-5-1.3-5.1C92.2,2.7,94.7,10.7,102.6,15.8z"
		/>
	<path d="M84,109.9c3.3,0.9,6.1,1.8,6,2.5c-0.1,0.6-3,0.7-6.6-0.3c-3.8-1.2-5.7-3.6-5.4-4.1C78.4,107.4,81,108.9,84,109.9z"/>
	<path d="M84.2,117.8c3.1,1,5.7,1.4,5.8,2c0.1,0.6-3,1.3-6.5,0.2c-3.7-1.2-5.4-3.8-5-4.2C79,115.2,81.3,116.9,84.2,117.8z"/>
	<path d="M113.8,106.2c1.1,0,0.6,1,0,1.1c-10.1,1.4-10.2,14.1-11.3,14.1c-0.6,0-0.1-6,2.3-10C107.4,107.5,110.4,106.7,113.8,106.2z"
		/>
</g>
</svg>
