<?xml version="1.0" standalone="no"?>
<!DOCTYPE svg PUBLIC "-//W3C//DTD SVG 20010904//EN"
 "http://www.w3.org/TR/2001/REC-SVG-20010904/DTD/svg10.dtd">
<svg version="1.0" xmlns="http://www.w3.org/2000/svg"
 width="700.000000pt" height="700.000000pt" viewBox="0 0 700.000000 700.000000"
 preserveAspectRatio="xMidYMid meet">
<metadata>
Created by potrace 1.11, written by Peter Selinger 2001-2013
</metadata>
<g transform="translate(0.000000,700.000000) scale(0.100000,-0.100000)"
fill="#000000" stroke="none">
<path d="M821 6243 c-19 -10 -44 -31 -55 -46 l-21 -28 -2 -2662 c-3 -2642 -3
-2662 17 -2695 11 -18 34 -41 52 -52 33 -20 56 -20 2688 -20 2632 0 2655 0
2688 20 18 11 41 34 52 52 20 33 20 56 20 2683 0 2503 -1 2652 -18 2684 -9 19
-30 44 -45 55 l-28 21 -2657 3 c-2514 2 -2659 1 -2691 -15z m3757 -2114 c50
-25 97 -84 113 -142 36 -134 -74 -267 -221 -267 l-55 0 -187 -187 -186 -188
-4 -70 c-4 -81 -27 -124 -91 -170 -52 -37 -136 -46 -202 -20 -83 31 -142 127
-133 217 3 37 0 41 -133 174 l-137 136 -56 2 -56 1 -246 -246 -245 -245 -3
-66 c-1 -52 -8 -74 -29 -107 -74 -112 -225 -135 -323 -48 -50 43 -74 96 -74
162 0 124 94 215 222 215 l53 0 242 242 243 243 0 55 c1 127 93 220 217 220
122 -1 213 -96 213 -222 l0 -53 134 -134 134 -134 61 -1 61 -1 189 190 189
190 -1 61 c-1 92 51 170 134 203 44 18 130 12 177 -10z"/>
</g>
</svg>
