<?xml version="1.0" standalone="no"?>
<!DOCTYPE svg PUBLIC "-//W3C//DTD SVG 20010904//EN"
 "http://www.w3.org/TR/2001/REC-SVG-20010904/DTD/svg10.dtd">
<svg version="1.0" xmlns="http://www.w3.org/2000/svg"
 width="700.000000pt" height="700.000000pt" viewBox="0 0 700.000000 700.000000"
 preserveAspectRatio="xMidYMid meet">
<metadata>
Created by potrace 1.11, written by Peter Selinger 2001-2013
</metadata>
<g transform="translate(0.000000,700.000000) scale(0.100000,-0.100000)"
fill="#000000" stroke="none">
<path d="M2733 5723 c-3 -15 -43 -180 -88 -365 l-81 -338 -37 44 c-45 54 -105
84 -183 92 -52 5 -154 -15 -884 -176 -454 -99 -853 -190 -887 -201 -115 -38
-203 -145 -203 -250 0 -53 11 -108 149 -729 181 -818 441 -2000 497 -2258 30
-139 63 -270 73 -290 42 -81 117 -124 216 -125 69 -1 1738 354 1789 380 66 34
123 84 148 130 38 72 41 108 18 220 -21 100 -25 122 -36 179 l-6 31 287 -69
c158 -38 290 -67 292 -64 3 2 8 20 12 39 l8 34 -310 74 -310 74 -268 1215
c-148 668 -280 1274 -295 1346 l-27 132 93 393 c51 217 96 397 99 402 5 5
3430 -807 3448 -817 1 -1 -85 -361 -191 -801 -106 -440 -190 -803 -187 -807 4
-4 21 -9 40 -10 l34 -3 198 825 c109 454 198 833 199 842 0 11 -11 19 -32 23
-50 11 -3530 845 -3550 851 -13 4 -19 -2 -25 -23z m-323 -683 c22 -11 46 -33
55 -49 17 -33 56 -203 49 -210 -3 -3 -456 -105 -1007 -226 -668 -148 -1004
-218 -1008 -211 -4 6 -14 49 -23 94 -24 125 -1 189 87 233 55 29 1672 387
1750 388 40 1 70 -5 97 -19z m423 -1674 c159 -719 287 -1310 284 -1312 -8 -8
-2017 -438 -2021 -433 -4 7 -576 2612 -574 2615 7 6 1995 442 2008 441 11 -2
83 -314 303 -1311z m330 -1512 c12 -54 17 -106 13 -126 -8 -45 -57 -102 -108
-127 -47 -22 -1709 -381 -1766 -381 -44 0 -99 27 -119 57 -16 24 -65 224 -57
232 8 8 1971 439 1994 438 22 -2 26 -9 43 -93z"/>
<path d="M1485 4738 c-127 -31 -117 -26 -110 -61 4 -18 8 -33 10 -35 3 -4 189
40 197 47 3 3 4 18 1 34 -6 30 -25 33 -98 15z"/>
<path d="M2150 1608 c-143 -31 -177 -49 -166 -86 4 -12 16 -24 27 -27 25 -8
305 52 337 71 24 16 29 43 10 62 -17 17 -57 14 -208 -20z"/>
<path d="M3141 4253 c-6 -20 -9 -38 -8 -39 8 -8 78 -21 81 -16 2 4 7 23 11 43
6 35 5 36 -25 43 -48 9 -48 9 -59 -31z"/>
<path d="M3542 4158 c-8 -29 -7 -40 1 -44 7 -2 404 -98 882 -212 601 -144 872
-205 877 -198 4 7 8 25 10 41 l3 29 -780 188 c-429 103 -826 198 -882 211
l-101 24 -10 -39z"/>
<path d="M3045 3854 c-6 -37 3 -53 32 -54 6 0 18 -3 27 -6 11 -4 17 4 22 31 7
42 1 50 -42 59 -30 7 -32 5 -39 -30z"/>
<path d="M3445 3754 c-3 -20 -5 -37 -3 -39 6 -6 1761 -425 1765 -421 2 1 4 20
6 41 l2 38 -865 208 c-476 115 -872 208 -881 209 -11 0 -19 -12 -24 -36z"/>
<path d="M2956 3479 c-16 -53 -16 -68 4 -73 11 -3 29 -8 39 -11 16 -5 22 1 30
32 11 38 3 52 -26 53 -6 0 -18 3 -27 6 -9 3 -18 0 -20 -7z"/>
<path d="M3351 3353 c-6 -20 -9 -38 -8 -39 1 -2 389 -96 862 -209 473 -113
870 -208 882 -211 18 -5 23 0 32 32 6 21 9 40 7 42 -4 4 -1745 422 -1757 422
-5 0 -13 -17 -18 -37z"/>
<path d="M6295 3277 c-39 -19 -146 -83 -240 -144 -93 -60 -480 -305 -859 -544
l-688 -434 -132 -160 c-149 -181 -275 -344 -329 -425 -26 -39 -37 -66 -37 -92
0 -35 2 -38 35 -44 19 -3 56 -3 83 0 146 20 731 163 757 186 11 9 283 182 605
385 322 202 632 398 690 435 58 37 184 117 281 178 234 148 279 199 279 316 0
67 -21 132 -65 206 -101 166 -225 211 -380 137z m188 -71 c42 -17 90 -72 126
-144 55 -109 52 -159 -11 -229 -37 -39 -155 -121 -162 -112 -2 2 -57 89 -122
193 l-118 189 30 24 c43 35 165 93 197 93 15 0 42 -6 60 -14z m-250 -346 c66
-104 116 -193 113 -198 -11 -18 -236 -153 -245 -148 -17 11 -243 377 -237 383
14 14 232 151 241 152 6 0 63 -84 128 -189z m-331 -220 c57 -91 107 -170 111
-176 7 -11 -1110 -725 -1138 -728 -12 -1 -245 354 -245 374 0 4 257 170 572
369 515 325 572 359 583 343 7 -9 59 -91 117 -182z m-1248 -758 c53 -84 103
-163 111 -176 l16 -24 -228 -56 c-125 -31 -270 -64 -321 -75 l-93 -19 17 27
c63 97 386 493 395 484 4 -5 50 -77 103 -161z"/>
<path d="M3254 2956 c-3 -21 -3 -40 1 -44 3 -4 309 -79 678 -168 l672 -162 11
37 c6 20 9 39 5 42 -3 4 -301 77 -662 163 -360 86 -665 159 -676 162 -19 5
-23 1 -29 -30z"/>
</g>
</svg>
