<?xml version="1.0" standalone="no"?>
<!DOCTYPE svg PUBLIC "-//W3C//DTD SVG 20010904//EN"
 "http://www.w3.org/TR/2001/REC-SVG-20010904/DTD/svg10.dtd">
<svg version="1.0" xmlns="http://www.w3.org/2000/svg"
 width="700.000000pt" height="700.000000pt" viewBox="0 0 700.000000 700.000000"
 preserveAspectRatio="xMidYMid meet">
<metadata>
Created by potrace 1.11, written by Peter Selinger 2001-2013
</metadata>
<g transform="translate(0.000000,700.000000) scale(0.100000,-0.100000)"
fill="#000000" stroke="none">
<path d="M2150 5893 c-23 -98 -63 -263 -89 -367 l-46 -189 -745 -164 c-483
-107 -765 -173 -802 -190 -109 -49 -188 -162 -188 -270 0 -32 23 -145 75 -373
25 -108 639 -2890 656 -2970 39 -191 78 -332 102 -373 44 -74 126 -117 224
-117 76 0 1962 404 2030 435 112 51 193 161 193 261 0 29 -16 122 -35 206
-140 622 -210 948 -204 948 4 0 223 -52 486 -115 264 -63 484 -115 490 -115 9
0 37 81 30 86 -1 1 -234 57 -517 124 -283 68 -516 124 -517 124 -7 5 -89 401
-84 403 3 2 377 -87 831 -196 553 -132 827 -194 832 -187 3 6 8 27 10 46 l3
34 -850 204 c-467 112 -852 206 -854 208 -4 3 -91 398 -88 400 1 1 424 -100
940 -224 547 -131 942 -221 947 -216 5 5 11 25 15 44 l6 35 -958 229 c-527
126 -963 234 -969 240 -6 6 -44 162 -84 346 -179 826 -233 1057 -254 1097 -8
15 -27 40 -43 54 -99 90 -212 100 -448 40 -66 -17 -122 -31 -126 -31 -6 0 135
597 143 605 4 4 3890 -925 3897 -932 5 -4 -16 -96 -259 -1107 -94 -390 -169
-710 -167 -712 1 -2 21 -6 43 -10 l40 -6 224 934 c123 513 224 942 224 952 1
15 -9 22 -39 29 -22 5 -884 211 -1915 457 -2202 528 -2086 500 -2104 500 -9 0
-26 -54 -56 -177z m430 -585 c25 -13 54 -37 65 -54 19 -29 72 -240 63 -250 -7
-6 -2282 -512 -2287 -508 -2 1 -12 38 -22 81 -23 100 -24 178 -1 223 21 42 89
95 141 111 20 6 449 102 952 214 626 139 935 203 979 204 50 1 76 -4 110 -21z
m164 -425 c3 -10 148 -666 321 -1458 174 -792 320 -1456 324 -1476 l8 -37 -76
-15 c-42 -9 -553 -117 -1135 -242 -583 -124 -1067 -225 -1076 -225 -13 0 -74
265 -343 1482 -180 814 -326 1482 -325 1483 5 4 2263 503 2280 504 9 1 19 -7
22 -16z m705 -3195 c26 -122 21 -160 -28 -218 -58 -71 -71 -75 -1104 -295
-1034 -221 -1011 -217 -1079 -172 -43 29 -62 70 -91 200 l-24 107 23 6 c13 3
529 117 1146 253 756 167 1125 244 1129 237 3 -6 16 -59 28 -118z"/>
<path d="M1595 4968 c-22 -5 -73 -15 -113 -24 l-74 -16 7 -37 c4 -20 8 -38 10
-40 3 -2 54 7 115 19 106 22 110 24 109 49 -1 50 -10 58 -54 49z"/>
<path d="M2638 3592 c-84 -18 -118 -29 -118 -40 0 -8 6 -12 14 -9 7 3 34 8 59
12 l46 7 10 -38 c5 -22 20 -92 32 -156 15 -78 27 -118 36 -118 16 0 18 -18
-17 155 -16 81 -30 154 -30 160 0 7 20 16 46 20 59 8 75 15 68 26 -7 12 -8 11
-146 -19z"/>
<path d="M2422 3538 c3 -7 20 -84 39 -170 24 -111 38 -158 48 -158 9 0 11 7 8
22 -4 12 -21 89 -38 170 -24 106 -37 148 -47 148 -8 0 -12 -6 -10 -12z"/>
<path d="M2182 3500 c-55 -8 -91 -36 -120 -91 -29 -54 -24 -122 13 -186 27
-44 90 -83 138 -83 34 0 95 27 130 59 26 24 27 24 42 5 9 -11 14 -14 15 -6 0
13 -30 155 -35 159 -7 9 -115 -22 -115 -32 0 -10 10 -11 41 -4 48 11 55 8 62
-28 7 -37 -53 -98 -107 -108 -83 -16 -142 25 -166 114 -16 60 -6 101 34 140
56 55 131 58 183 9 26 -25 40 -19 24 10 -17 33 -77 51 -139 42z"/>
<path d="M1804 3420 c-53 -8 -86 -30 -114 -75 -19 -30 -22 -47 -18 -105 3 -59
8 -74 34 -107 71 -88 171 -93 257 -14 26 24 27 24 42 5 13 -18 14 -18 15 -1 0
10 -7 50 -16 88 -18 78 -6 72 -104 53 -16 -3 -30 -11 -30 -19 0 -10 10 -10 46
-3 51 11 49 12 58 -24 5 -21 0 -34 -24 -62 -56 -63 -152 -72 -205 -19 -36 37
-60 123 -46 166 31 91 155 133 213 72 29 -31 54 -34 38 -5 -23 42 -78 61 -146
50z"/>
<path d="M1425 3340 c-89 -19 -135 -75 -135 -161 1 -98 49 -167 132 -190 71
-19 150 16 184 83 23 44 16 157 -12 195 -43 58 -108 86 -169 73z m70 -30 c30
0 75 -52 91 -105 19 -67 8 -118 -37 -160 -26 -26 -38 -30 -82 -29 -32 0 -62 7
-79 18 -54 35 -84 147 -54 204 25 49 92 87 134 76 8 -2 20 -4 27 -4z"/>
<path d="M1010 3243 c0 -5 16 -84 36 -176 26 -117 41 -166 50 -163 6 2 51 12
98 22 58 11 86 21 86 31 0 9 -7 12 -22 8 -111 -26 -160 -32 -163 -21 -2 6 -15
70 -30 141 -14 72 -28 138 -31 148 -5 17 -24 24 -24 10z"/>
<path d="M2307 1420 c-92 -21 -174 -43 -182 -50 -18 -15 -20 -51 -3 -68 18
-18 52 -15 221 23 86 19 158 35 161 35 12 0 36 33 36 50 0 23 -26 50 -48 49
-9 0 -92 -18 -185 -39z"/>
<path d="M3103 4276 l-10 -45 211 -51 c1503 -361 1782 -426 1788 -416 3 6 8
27 10 46 l3 34 -990 238 c-545 130 -993 238 -996 238 -3 0 -10 -20 -16 -44z"/>
<path d="M6303 3304 c-66 -17 -122 -46 -243 -122 -52 -34 -180 -115 -285 -180
-104 -66 -504 -318 -887 -559 l-697 -439 -159 -195 c-193 -237 -345 -437 -370
-487 -11 -20 -22 -52 -25 -70 -6 -29 -4 -34 21 -43 52 -20 166 0 627 113 l290
71 700 440 c385 242 765 481 845 531 80 51 210 132 289 182 275 170 339 261
297 424 -21 83 -77 181 -139 247 -80 85 -166 114 -264 87z m142 -107 c100 -56
196 -253 171 -351 -10 -41 -62 -92 -153 -153 -68 -45 -87 -54 -94 -42 -5 8
-69 109 -143 226 l-135 212 64 41 c81 53 169 90 215 90 19 0 53 -10 75 -23z
m-295 -383 c79 -125 139 -229 134 -234 -17 -15 -286 -182 -289 -178 -24 28
-276 441 -273 448 1 5 66 49 143 99 77 49 141 89 141 90 1 1 66 -101 144 -225z
m-382 -234 c73 -116 135 -216 138 -223 2 -7 -249 -171 -647 -422 -358 -226
-654 -411 -658 -412 -3 -2 -23 25 -43 60 -21 34 -57 92 -80 129 -96 149 -158
250 -158 257 1 8 1292 820 1305 821 6 0 70 -95 143 -210z m-1392 -892 l133
-213 -147 -37 c-117 -30 -441 -104 -580 -134 -23 -5 -23 -4 6 38 77 112 444
570 451 563 2 -3 64 -100 137 -217z"/>
</g>
</svg>
