<?xml version="1.0" encoding="utf-8"?>
<!-- Generator: Adobe Illustrator 18.0.0, SVG Export Plug-In . SVG Version: 6.00 Build 0)  -->
<!DOCTYPE svg PUBLIC "-//W3C//DTD SVG 1.1//EN" "http://www.w3.org/Graphics/SVG/1.1/DTD/svg11.dtd">
<svg version="1.1" id="Layer_1" xmlns="http://www.w3.org/2000/svg" xmlns:xlink="http://www.w3.org/1999/xlink" x="0px" y="0px"
	 viewBox="0 0 612 792" enable-background="new 0 0 612 792" xml:space="preserve">
<g>
	<path fill="#FFFFFF" d="M397.8,277.4c23.1,3.3,45.2,6.1,65,7.5c19.8,1.4,38.6,2.8,52.3-0.9c13.7-4.7,23.1-12.7,28.7-18.8
		c5.6-6.1,8-10.4,8.5-9.9c0.5,0.5-0.5,5.2-5.6,12.2c-4.7,7.1-14.1,17.4-29.2,23.1c-16.5,5.2-34.4,3.8-55.1,3.3
		c-20.2-0.9-42.8-3.3-65.9-7.1c-23.5-3.8-45.2-8-65-15.1c-5.2-1.9-9.9-3.8-14.6-7.5c-4.7-4.2-6.6-9.4-8-13.7
		c-2.8-9.4-3.8-17.9-4.7-25.4c-1.9-31.1,1.4-49.9,2.8-49.9c1.4,0,0.9,19.3,4.2,49.4c0.9,7.5,2.4,15.5,5.6,23.5
		c1.4,3.8,3.3,7.5,6.1,9.9c2.8,2.4,7.5,4.2,11.8,5.6C353.1,269.8,375.2,273.6,397.8,277.4z"/>
	<path fill="#FFFFFF" d="M422.8,357.4c-14.1,2.4-27.8,4.2-40,6.1c-3.8,0.5-4.7,1.4-10.4,0.9c-2.8-0.5-5.6-0.9-8.5-1.4
		c-5.6-0.9-10.4-1.9-15.1-2.8c-18.4-3.3-29.7-6.6-29.7-7.5c0-1.4,11.8-0.9,30.6,0.9c4.7,0.5,9.9,0.9,15.5,1.4
		c2.8,0.5,5.6,0.5,8.5,0.9c0.5,0,5.2-0.9,7.5-1.4c12.2-2.4,25.9-4.7,40-6.6c14.1-2.4,27.8-4.2,40-5.6c-0.9,1.4,1.9-1.9,3.3-3.8
		c1.4-2.4,2.8-4.7,4.2-7.1c2.8-4.7,5.2-9.4,7.1-13.2c8.5-16.5,14.1-26.8,15.1-26.4c1.4,0.5-1.9,11.8-8.9,29.7
		c-1.9,4.2-3.8,9.4-6.1,14.1c-1.4,2.4-2.8,5.2-4.2,8c-0.9,1.4-1.9,2.8-2.8,4.2c-0.5,0.9-1.4,1.4-2.4,2.4c-0.9,0.5-0.9,0.9-2.4,1.4
		s-1.9,0.5-2.4,0.5C450.5,352.7,436.9,355,422.8,357.4z"/>
	<path fill="#FFFFFF" d="M215.6,287.3c-23.5,3.8-45.7,5.6-65.9,7.1c-20.7,0.5-38.6,1.9-55.1-3.3c-15.1-6.1-24.5-16-29.2-23.1
		c-5.2-7.5-6.1-12.2-5.6-12.2c0.5-0.5,2.8,3.8,8.5,9.9s14.6,14.6,28.7,18.8c13.2,3.8,32.5,1.9,52.3,0.9c20.2-1.4,42.4-4.2,65-7.5
		c22.6-4.2,44.7-8,63.6-14.1c4.7-1.4,8.9-3.3,11.8-5.6c2.8-2.4,4.7-6.1,6.1-9.9c2.8-8,4.2-16,5.6-23.5c3.8-30.1,2.8-49.4,4.2-49.4
		c0.9,0,4.7,18.8,2.8,49.9c-0.5,8-1.4,16.5-4.7,25.4c-1.9,4.7-3.8,9.4-8,13.7c-4.7,3.8-9.4,5.6-14.6,7.5
		C260.8,279.7,238.7,283.5,215.6,287.3z"/>
	<path fill="#FFFFFF" d="M190.7,347c14.1,2.4,27.8,4.7,40,6.6c2.4,0.5,7.5,1.4,7.5,1.4c2.8-0.5,5.6-0.5,8.5-0.9
		c5.6-0.5,10.8-0.9,15.5-1.4c18.8-1.9,30.6-1.9,30.6-0.9c0,0.9-11.3,4.2-29.7,7.5c-4.7,0.9-9.9,1.9-15.1,2.8
		c-2.8,0.5-5.6,0.9-8.5,1.4c-5.6,0.5-6.6-0.5-10.4-0.9c-12.2-1.9-25.9-3.8-40-6.1s-27.8-4.7-39.5-6.6c0,0-0.5,0-2.4-0.5
		c-1.4,0-1.4,0-2.4-0.5c-0.9-0.9-1.4-1.4-2.4-2.4c-0.9-1.4-1.9-2.8-2.8-4.2c-1.4-2.8-2.8-5.2-4.2-8c-2.4-5.2-4.7-9.9-6.1-14.1
		c-7.1-17.4-9.9-28.7-8.9-29.7c1.4-0.5,6.6,9.9,15.1,26.4c2.4,4.2,4.7,8.5,7.1,13.2c1.4,2.4,2.8,4.7,4.2,7.1
		c0.9,1.9,4.2,5.2,3.3,3.8C163.4,342.8,176.5,345.2,190.7,347z"/>
	<path fill="#FFFFFF" d="M312.1,303.3c-2.8,25,2.4,45.2,0.5,46.1c-2.8,1.9-13.2-19.8-10.4-47.1c2.8-26.8,10.8-46.6,13.2-46.1
		C318.2,257.1,314.5,277.8,312.1,303.3z"/>
	<path fill="#FFFFFF" d="M309.8,303.3c2.8,26.8-7.5,47.5-10.4,45.7c-1.9-0.9,2.8-20.2,0.5-44.7c-2.8-24.5-8-44.3-5.2-45.2
		C297.1,258.1,306.9,276.9,309.8,303.3z"/>
	<path fill="#FFFFFF" d="M315.4,372c-4.7,11.3-6.1,22.1-8.9,22.1c-2.4,0.5-5.6-11.8,0.5-25.9c6.1-14.6,20.7-18.4,21.2-15.1
		C328.6,355.5,320.1,360.7,315.4,372z"/>
	<path fill="#FFFFFF" d="M443.9,456.3c-17.9,6.1-35.8,6.6-51.8,3.3c-15.5-3.8-28.2-8.5-39.1-12.2c-21.7-8-34.8-14.1-34.4-15.5
		s14.1,2.4,36.2,8.9c10.8,2.8,24.5,7.1,38.6,9.9c13.7,2.4,30.6,1.4,46.1-3.8c0.9-0.5,1.9-0.9,2.4-0.9c0.5-0.5,0,0,0,0
		s0.5-0.5,0.5-0.9c0.9-1.4,2.4-3.3,3.3-5.2c2.4-3.8,4.2-7.1,6.1-10.8c4.2-7.1,8-14.1,11.3-20.7c3.8-6.6,7.1-13.2,10.4-18.8l2.4-4.2
		l0.9-2.4l0.5-0.5v-0.5l0,0c0-0.9,0.9,8,0.5,4.2l0,0l0,0l-0.9-0.9c-1.9-2.4-3.8-4.7-5.6-7.1c-14.6-17.9-22.6-29.7-21.7-30.6
		c0.9-0.9,11.3,8.9,26.8,25.9c1.9,1.9,4.2,4.2,6.1,6.6l0.9,0.9l0,0l0,0c-0.5-3.8,0.5,5.2,0.5,4.2l0,0v0.5l-0.5,0.5l-0.9,2.4
		l-1.9,4.7c-2.8,6.1-6.1,12.7-9.4,19.3c-3.3,7.1-7.1,14.1-10.8,21.2c-1.9,3.8-4.2,7.5-6.1,11.3c-0.9,1.9-2.4,3.8-3.8,5.6
		c-0.5,0.5-0.9,0.9-1.4,1.9c-0.9,0.9-1.9,1.9-2.4,1.9C446.3,455.3,445.3,455.8,443.9,456.3z"/>
	<g>
		<path fill="#FFFFFF" d="M305.1,368.2c6.1,14.1,2.8,26.4,0.5,25.9c-2.8,0-4.2-10.8-8.9-22.1c-4.7-11.3-13.2-16.9-12.7-19.3
			S298.5,353.6,305.1,368.2z"/>
	</g>
	<g>
		<path fill="#FFFFFF" d="M480.7,508c10.4-20.7,25.9-52.7,38.6-90.4c20.7-66.4,31.1-122.4,33.4-121.9c3.3,0.5-2.8,57.4-24,125.2
			c-13.7,41.4-32.5,74.9-45.2,94.2C481.1,518.4,478.8,511.3,480.7,508z"/>
	</g>
	<path fill="#FFFFFF" d="M171.4,446.8c15.5,5.2,32.5,6.1,46.1,3.8c14.6-2.8,27.8-7.1,38.6-9.9c22.1-6.1,35.8-9.9,36.2-8.9
		c0.5,1.4-12.7,7.5-34.4,15.5c-10.8,3.8-23.5,8.5-39.1,12.2c-16,3.3-33.4,2.4-51.8-3.3c-0.9-0.5-2.4-0.9-3.8-1.4
		c-0.5,0-1.9-0.9-2.4-1.9c-0.5-0.5-0.9-1.4-1.4-1.9c-1.4-1.9-2.8-3.8-3.8-5.6c-2.4-3.8-4.2-7.5-6.1-11.3
		c-3.8-7.5-7.5-14.6-10.8-21.2c-3.3-7.1-6.6-13.2-9.4-19.3l-1.9-4.7l-0.9-2.4l-0.5-0.5v-0.5l0,0c0,0.9,0.9-8,0.5-4.2l0,0l0,0
		l0.9-0.9c2.4-2.4,4.2-4.7,6.1-6.6c15.5-16.9,25.9-26.8,26.8-25.9c0.9,0.9-7.5,12.7-21.7,30.6c-1.9,2.4-3.8,4.7-5.6,7.1l-0.9,0.9
		l0,0l0,0c-0.5,3.8,0.5-5.2,0.5-4.2l0,0v0.5l0.5,0.5l0.9,2.4l2.4,4.2c3.3,6.1,6.6,12.2,10.4,18.8c3.8,6.6,7.5,13.7,11.3,20.7
		c1.9,3.8,4.2,7.1,6.1,10.8c0.9,1.9,2.4,3.8,3.3,5.2c0.5,0.5,0.5,0.5,0.5,0.9c0,0,0-0.5-0.5,0c-0.5,0.5-0.9,1.4-1.4,2.4v0.5
		c-0.5,0.9,3.3-5.6,1.9-2.8l0,0l0,0l0,0C169.9,445.9,170.9,446.4,171.4,446.8z"/>
	<g>
		<g>
			<path fill="#FFFFFF" d="M445.8,463.8c-0.9-0.9-9.4,7.1-19.8,22.6c-5.2,8-10.4,17.4-14.6,29.2c-4.7,11.8-7.1,25-9.9,38.6
				c-1.4,7.1-2.4,13.7-3.8,20.2c-0.5,3.3-0.9,6.6-1.4,9.4v0.5l-0.9,0.9l-3.3,3.3c-8.5,8.5-17.9,27.8-17.9,27.8
				c7.1-6.1,15.1-13.2,24-21.2l3.3-2.8l1.9-1.4l0,0l0,0l0,0c2.8-5.2,0.9-1.4,1.4-2.8l0,0v-0.5v-0.9c0.5-3.3,0.9-6.1,1.9-9.4
				c1.4-6.6,2.4-13.2,3.8-19.8C418,501.5,448.6,465.7,445.8,463.8z"/>
			<path fill="#FFFFFF" d="M217.5,586.7l-1.4-1.4l-0.5-0.5l-0.5-3.3c-0.5-3.3-0.9-6.1-1.4-9.4c-0.9-6.6-2.4-12.7-3.8-19.8
				c-2.8-13.2-5.2-26.4-9.9-38.1c-4.2-11.3-9.9-20.7-14.6-28.7c-9.9-15.1-18.4-23.1-19.3-22.1c-2.8,1.9,26.8,36.7,33.9,90.4
				c1.4,6.6,2.4,13.2,3.8,19.3c0.5,3.3,1.4,6.1,1.9,9.4l0.9,4.7l0,0c-0.5-0.5,2.8,5.2,1.4,2.8l0,0l0,0l0,0l0.5,0.5l0.9,0.9l1.9,1.4
				c15.1,19.8,36.7,23.1,36.7,23.1C241.5,610.2,226,594.7,217.5,586.7z"/>
		</g>
		<path fill="#FFFFFF" d="M116.8,556.1c-5.6,16.5-7.1,42.4-0.9,56c0,1.4-11.3-8.9-13.2-24c0-11.3,1.4-22.1,4.2-34.4
			c2.8-12.2,8-23.1,13.2-32c4.7-8.5,8-17.4,11.3-24.5c6.1-14.1,10.4-23.1,11.3-22.6c1.4,0.5-0.5,9.9-4.7,25
			c-2.4,7.5-5.2,16.5-9.9,26.4C123.8,535.3,119.6,544.8,116.8,556.1z"/>
		<path fill="#FFFFFF" d="M495.2,556.1c5.6,16.5,7.1,42.4,0.9,56c0,1.4,11.3-8.9,13.2-24c0-11.3-1.4-22.1-4.2-34.4s-8-23.1-13.2-32
			c-4.7-8.5-8-17.4-11.3-24.5c-6.1-14.1-10.4-23.1-11.3-22.6c-1.4,0.5,0.5,9.9,4.7,25c2.4,7.5,5.2,16.5,9.9,26.4
			C488.2,535.3,492.4,544.8,495.2,556.1z"/>
		<path fill="#FFFFFF" d="M131.3,508c-10.4-20.7-25.9-52.7-38.6-90.4C72,351.3,61.7,295.3,59.3,295.7c-3.3,0.5,2.8,57.4,24,125.2
			c13.7,41.4,32.5,74.9,45.2,94.2C130.9,518.4,133.2,511.3,131.3,508z"/>
	</g>
	<ellipse fill="#FFFFFF" cx="306" cy="480.7" rx="3.8" ry="35.8"/>
	<ellipse fill="#FFFFFF" cx="306" cy="402.1" rx="3.8" ry="29.7"/>
	<path fill="#FFFFFF" d="M306,555.6c-1.9,0-3.8,16-3.8,35.8c0,7.1,3.3,20.7,6.6,20.7c3.8,0,0.9-13.2,0.9-20.7
		C309.8,571.6,307.9,555.6,306,555.6z"/>
	<g>
		<path fill="#FFFFFF" d="M308.4,543.8c-3.3-8.5-0.5-14.6-0.5-14.6s-10.8-2.4-8.9,9.9C300.4,546.6,310.2,548.5,308.4,543.8z"/>
	</g>
</g>
</svg>
