<?xml version="1.0" encoding="utf-8"?>
<!-- Generator: Adobe Illustrator 18.0.0, SVG Export Plug-In . SVG Version: 6.00 Build 0)  -->
<!DOCTYPE svg PUBLIC "-//W3C//DTD SVG 1.1//EN" "http://www.w3.org/Graphics/SVG/1.1/DTD/svg11.dtd">
<svg version="1.1" id="Layer_1" xmlns="http://www.w3.org/2000/svg" xmlns:xlink="http://www.w3.org/1999/xlink" x="0px" y="0px"
	 viewBox="0 0 612 792" enable-background="new 0 0 612 792" xml:space="preserve">
<g>
	<path fill="#FFFFFF" d="M150.2,319.7c-4.7,1.4-9.4,3.3-15.1,4.2c-6.6,0.9-11.3-0.9-16-1.9c-4.7-1.4-9.4-2.8-12.7-3.3
		c-2.4-0.9-5.2,1.9-7.5,4.7c-0.5,0.9-1.4,1.4-1.9,2.4l-0.5,0.5v0.5l0,0l0,0c0.9-0.5-7.1,3.3-3.8,1.9l0,0c-0.5,0-0.9,0-1.4,0
		c-1.9,0-3.8,0-6.1,0c-3.8,0-8,0.5-11.3,1.4c-7.1,1.4-13.7,3.8-19.3,7.1c-10.8,5.6-16.9,15.1-20.2,21.2s-4.7,10.4-5.2,9.9
		c-0.5,0-0.5-4.2,2.4-11.3c2.8-7.1,8-17.4,20.2-25.4c5.6-3.8,13.2-7.1,20.7-8.9c3.8-0.9,8-1.4,12.2-1.9c2.4,0,4.2,0,6.6,0
		c0.5,0,0.9,0,1.9,0l0,0c3.3-1.4-4.2,2.4-3.8,1.9l0,0l0,0l0.5-0.5l0.5-0.9c0.5-0.9,1.4-1.9,2.4-2.8c1.4-1.9,3.3-3.8,5.6-5.2
		c1.9-1.9,6.1-2.8,8.9-2.4c5.6,0.9,9.9,2.4,14.1,3.8c4.2,1.4,8.9,2.4,12.2,1.9c4.2-0.9,8.9-2.4,13.7-4.2
		c18.8-6.6,36.7-13.7,53.2-19.8c8-3.3,16.5-5.6,22.6-8.9c6.6-3.3,12.7-7.1,17.9-11.3c20.2-16,29.2-30.1,30.6-29.2
		c0.9,0.5-6.1,16-26.4,33.9c-5.2,4.2-11.3,8.9-18.4,12.7c-7.5,3.8-15.1,6.6-23.1,9.9C187.4,305.6,169.5,313.1,150.2,319.7z"/>
	<path fill="#FFFFFF" d="M246.2,251.9c5.2-20.2,0-28.2,2.4-28.7c2.4-0.5,7.1,13.2,4.2,31.1c-4.2,18.4-16.5,27.3-17.9,25.9
		C232.6,278.8,242.9,267,246.2,251.9z"/>
	<path fill="#FFFFFF" d="M152.1,475.1c9.4,8.9,18.4,17.4,26.4,26.4c3.8,4.2,8,9.4,9.9,14.1c2.4,4.7,3.8,9.4,4.7,13.7
		c4.7,16.5,6.1,27.3,5.2,27.8c-1.4,0.5-4.7-9.9-10.8-25.4c-3.3-8-6.6-16.9-14.6-24.5c-8.5-8.5-17.4-16.9-26.8-25.9
		c-9.4-9.9-18.4-17.4-24.5-29.2c-5.2-10.8-7.1-21.7-8-30.1c-1.9-17.4,0-28.2,0.9-28.2c1.4,0,1.9,10.8,5.2,27.3
		c1.9,8,4.2,17.9,8.9,27.3C133.2,456.7,143.1,465.7,152.1,475.1z"/>
	<path fill="#FFFFFF" d="M172.3,555.6c2.8,30.1,13.2,52.7,11.3,53.7c-2.4,1.4-16.9-20.7-19.8-52.7c-2.8-32,6.6-56.5,8.5-56
		C175.1,501,169.5,525.9,172.3,555.6z"/>
	<path fill="#FFFFFF" d="M180.8,619.6c-7.5,10.8-8.5,24-9.4,33c-0.9,9.4-1.4,15.1-2.8,15.1c-0.9,0-2.8-5.6-3.3-15.5
		c0-9.4-0.9-24,8.5-37.7c3.8-6.6,9.9-12.2,15.1-15.5c4.7-3.3,6.6-7.1,8.5-11.3c2.8-8.5,3.3-14.6,4.7-14.6c0.9,0,3.3,6.1,1.4,16
		c-0.9,4.7-3.8,11.8-9.4,16C188.8,609.7,184.5,614,180.8,619.6z"/>
	<path fill="#FFFFFF" d="M98.9,562.2c3.8,14.1,6.1,29.7,2.4,43.3c-4.7,13.7-12.7,22.6-18.8,30.1c-13.2,14.6-23.1,21.7-24,21.2
		c-0.9-0.9,7.5-9.4,19.3-25c5.6-7.5,12.7-16.9,16-28.2c2.8-11.3,0.5-25-2.8-39.1c-0.9-3.8-1.9-7.1-1.9-11.8
		c0.5-6.6,3.8-8.5,5.6-11.8c4.2-5.6,8.9-10.8,13.2-15.5c8.5-9.4,16.9-17.9,22.6-25c9.9-15.5,11.3-28.2,12.7-27.8
		c0.9,0,2.4,12.7-7.5,31.1c-5.6,8.5-13.7,16.9-21.7,26.8c-4.2,4.7-8.5,9.9-12.2,15.5c-1.9,2.4-4.2,6.1-3.8,7.1
		C97,554.6,98.4,558.4,98.9,562.2z"/>
	<path fill="#FFFFFF" d="M230.2,432.2c-4.2,7.5-9.4,15.1-16.5,19.8c-7.1,4.7-14.1,6.1-19.8,6.6c-11.8,0.9-18.8-1.4-18.4-2.8
		c0-1.4,7.1-0.9,17.4-3.3c5.2-1.4,11.3-3.3,16.5-7.5c5.2-3.8,9.4-9.9,13.7-17.4c15.5-29.7,25-56,27.8-55.1
		C252.3,373.9,246.7,401.2,230.2,432.2z"/>
	<path fill="#FFFFFF" d="M256.1,544.3c-12.2,9.9-24.5,12.7-25,10.8c-0.5-1.4,9.9-7.1,20.7-15.5c9.9-9.4,15.1-20.2,16.9-19.3
		C270.2,520.3,267.9,533.5,256.1,544.3z"/>
	<path fill="#FFFFFF" d="M265,593.7c2.8,1.9,5.6,4.2,7.5,7.5c1.4,2.8,2.4,5.6,2.8,7.5c0.9,4.2,0.5,7.1,0,7.5c-0.9,0-2.4-2.4-4.2-6.1
		c-1.9-4.2-3.8-8-9.4-11.3c-2.4-1.9-5.2-3.3-7.5-4.7c-2.8-1.4-5.2-4.2-6.1-6.1c-2.4-4.2-2.8-7.1-1.9-7.1c0.9-0.5,2.8,1.4,5.6,4.2
		c1.4,1.4,2.8,2.8,5.2,3.8C259.4,590,262.2,591.8,265,593.7z"/>
	<path fill="#FFFFFF" d="M464.6,311.7c4.7,1.4,9.4,3.3,13.7,4.2c3.3,0.5,8-0.5,12.2-1.9c4.7-1.4,8.9-2.8,14.1-3.8
		c2.8-0.5,7.1,0.5,8.9,2.4c2.4,1.4,3.8,3.3,5.6,5.2c0.9,0.9,1.4,1.9,2.4,2.8l0.5,0.9l0.5,0.5l0,0l0,0c0.9,0.5-7.1-3.3-3.8-1.9l0,0
		c0.5,0,1.4,0,1.9,0c2.4,0,4.7,0,6.6,0c4.2,0.5,8.5,0.9,12.2,1.9c8,1.9,15.1,4.7,20.7,8.9c11.8,8,17.4,18.4,20.2,25.4
		c2.8,7.1,2.8,11.3,2.4,11.3s-1.9-3.8-5.2-9.9c-3.8-6.1-9.4-15.1-20.2-21.7c-5.2-3.3-11.8-5.6-19.3-7.1c-3.8-0.5-7.5-0.9-11.3-1.4
		c-1.9,0-3.8,0-6.1,0c-0.5,0-0.9,0-1.4,0l0,0c3.3,1.9-4.7-2.4-3.8-1.9l0,0l0,0v-0.5l-0.5-0.5c-0.5-0.9-1.4-1.4-1.9-2.4
		c-2.8-2.8-5.2-5.6-7.5-4.7c-3.8,0.5-8,2.4-12.7,3.3c-4.7,1.4-9.9,2.8-16,1.9c-5.2-0.9-9.9-2.8-15.1-4.2
		c-19.3-6.6-37.2-14.1-53.2-20.7c-8-3.3-16-6.1-23.1-9.9c-7.1-3.8-13.2-8.5-18.4-12.7c-20.2-18.4-27.3-33.9-26.4-33.9
		c0.9-0.9,10.4,13.2,30.6,29.2c5.2,3.8,10.8,8,17.9,11.3c6.6,3.3,14.6,5.6,22.6,8.9C427.9,298.1,445.8,305.1,464.6,311.7z"/>
	<path fill="#FFFFFF" d="M359.2,254.8c-3.3-17.9,1.9-31.5,4.2-31.1c2.4,0.5-0.9,15.1,1.9,30.6c3.3,14.6,14.1,25,12.2,26.4
		C375.7,282.1,363.4,273.1,359.2,254.8z"/>
	<path fill="#FFFFFF" d="M466.1,481.2c-9.4,9.4-18.8,17.4-26.4,25.4c-8,7.1-11.3,16.5-14.6,24.5c-6.1,16-9.4,25.9-10.8,25.4
		c-0.9-0.5,0-10.8,5.2-27.8c1.4-4.2,2.8-8.9,4.7-13.7c1.9-4.7,5.6-10.4,9.9-14.1c8-8.5,16.9-16.9,26.4-26.4
		c8.9-8.9,18.8-17.9,23.5-26.4c5.2-9.4,7.1-19.3,8.9-27.3c3.3-16.5,3.8-27.3,5.2-27.3c0.9,0,2.8,10.8,0.9,28.2
		c-0.9,8.5-2.8,19.3-8,30.1C484.9,463.3,475.5,471.3,466.1,481.2z"/>
	<path fill="#FFFFFF" d="M448.6,556.5c-2.8,32-17.9,54.6-19.8,52.7c-1.9-0.9,8.5-23.5,11.3-53.7c2.8-29.7-2.8-54.6,0-55.1
		C441.6,500,451,524.5,448.6,556.5z"/>
	<path fill="#FFFFFF" d="M438.3,614.9c9.4,13.7,8.5,28.2,8.5,37.7c-0.5,9.9-2.4,15.5-3.3,15.5c-1.4,0-1.9-6.1-2.8-15.1
		c-1.4-8.9-1.9-22.1-9.4-33c-3.8-5.6-8-9.9-12.7-14.1c-5.6-4.2-8.5-11.3-9.4-16c-1.9-9.9,0.5-16,1.4-16c1.4,0,1.4,6.1,4.7,14.6
		c1.4,4.2,3.8,8.5,8.5,11.3C428.4,603.1,434,608.8,438.3,614.9z"/>
	<path fill="#FFFFFF" d="M521.6,564.1c-3.8,14.1-5.6,27.8-2.8,39.1c3.3,11.3,10.4,20.7,16,28.2c11.8,15.1,20.2,24,19.3,25
		c-0.9,0.9-10.8-6.1-24-21.2c-6.1-7.5-14.1-16.5-18.8-30.1c-4.2-13.7-1.4-29.2,2.4-43.3c0.9-3.3,1.9-7.5,1.9-9.9
		c0.5-0.9-1.9-4.7-3.8-7.1c-3.8-5.6-8-10.4-12.2-15.5c-8-9.9-16-18.4-21.7-26.8c-9.9-18.4-8.5-31.1-7.5-31.1
		c1.4-0.5,2.8,12.2,12.7,27.8c5.6,7.1,14.1,15.5,22.6,25c4.2,4.7,8.9,9.9,13.2,15.5c1.9,3.3,4.7,5.2,5.6,11.8
		C523.5,557,522.1,560.3,521.6,564.1z"/>
	<path fill="#FFFFFF" d="M389.3,428c4.2,7.5,8,13.7,13.7,17.4c5.2,3.8,11.3,6.1,16.5,7.5c10.4,2.4,17.4,2.4,17.4,3.3
		s-6.6,3.8-18.4,2.8c-5.6-0.5-13.2-2.4-19.8-6.6c-7.1-4.7-12.2-12.2-16.5-19.8c-16.5-31.1-22.1-58.4-20.2-58.8
		C364.4,372,373.8,398.4,389.3,428z"/>
	<path fill="#FFFFFF" d="M360.1,539.1c10.8,8.5,21.7,14.1,20.7,15.5c-0.5,1.9-12.7-0.9-25-10.8c-11.8-10.8-14.1-24-12.7-24.5
		C345.1,518.9,350.3,530.2,360.1,539.1z"/>
	<path fill="#FFFFFF" d="M350.7,598.9c-5.2,3.3-7.1,7.1-9.4,11.3c-1.9,3.8-3.3,6.1-4.2,6.1c-0.9,0-0.9-2.8,0-7.5
		c0.5-2.4,0.9-4.7,2.8-7.5c1.9-3.3,4.7-5.6,7.5-7.5c2.8-1.9,5.6-3.3,8.5-4.7c2.4-0.9,3.8-2.4,5.2-3.8c2.8-2.8,4.7-4.7,5.6-4.2
		s0.5,3.3-1.9,7.1c-0.9,1.9-3.3,4.7-6.1,6.1C355.4,595.6,353.1,597,350.7,598.9z"/>
	<ellipse fill="#FFFFFF" cx="308.4" cy="457.2" rx="4.2" ry="106.4"/>
	<path fill="#FFFFFF" d="M312.6,648.3c0,17.9-1.9,19.8-4.2,19.8c-2.4,0-4.2-1.9-4.2-19.8s1.9-32,4.2-32
		C310.7,616.3,312.6,630.9,312.6,648.3z"/>
	<path fill="#FFFFFF" d="M311.2,242.1c21.2-0.5,40-11.3,50.8-25.9c11.3-14.6,15.5-31.5,17.4-45.7c3.3-29.2,5.6-47.1,7.1-46.6
		c1.4,0,0.9,18.4-0.9,47.5c-0.9,14.6-4.7,33.4-16.9,49.9c-11.8,16.5-33,29.2-57,30.1c-11.8,0.5-23.5-1.4-33.4-6.1
		c-10.4-4.7-18.4-12.2-25-19.8c-12.7-16-19.8-32-24.5-46.1c-8.9-30.1-3.8-49-2.8-48.5c1.4,0-0.9,18.4,8.5,45.7
		c5.2,13.2,13.2,29.2,25,42.8C271.2,233.6,290,243.9,311.2,242.1z"/>
	<path fill="#FFFFFF" d="M219.8,171.4c1.4,8.9,4.2,17.4,7.5,20.7c4.2,3.8,7.5,5.2,7.5,6.1c0,0.9-4.7,2.4-11.3-1.4
		c-7.1-4.7-10.4-14.1-12.2-24c-0.9-5.2-1.4-9.9-0.9-15.1c0.9-4.7,2.8-8.9,5.2-11.8c4.7-5.6,9.4-6.6,9.9-5.6
		C226.4,142.7,213.7,152.6,219.8,171.4z"/>
	<path fill="#FFFFFF" d="M403.9,172.9c-1.9,9.9-5.2,19.3-12.2,24c-6.6,3.8-11.3,2.4-11.3,1.4c0-1.4,3.8-2.4,7.5-6.1
		c3.3-3.3,5.6-11.8,7.5-20.7c6.1-18.8-6.6-28.7-5.6-30.6c0.5-0.9,5.2,0,9.9,5.6c2.4,2.8,4.2,7.1,5.2,11.8
		C405.3,163.4,404.4,168.1,403.9,172.9z"/>
</g>
</svg>
