<?xml version="1.0" encoding="utf-8"?>
<!-- Generator: Adobe Illustrator 18.0.0, SVG Export Plug-In . SVG Version: 6.00 Build 0)  -->
<!DOCTYPE svg PUBLIC "-//W3C//DTD SVG 1.1//EN" "http://www.w3.org/Graphics/SVG/1.1/DTD/svg11.dtd">
<svg version="1.1" id="Layer_1" xmlns="http://www.w3.org/2000/svg" xmlns:xlink="http://www.w3.org/1999/xlink" x="0px" y="0px"
	 viewBox="0 0 612 792" enable-background="new 0 0 612 792" xml:space="preserve">
<g>
	<path fill="#FFFFFF" d="M134.6,404c19.3,7.1,37.7,9.9,37.2,12.7c-0.5,2.4-18.4,4.2-41-3.8c-11.8-5.2-18.4-13.7-22.6-19.3
		c-4.2-6.1-5.6-10.8-4.7-11.3C105.9,380,117.7,395.5,134.6,404z"/>
	<path fill="#FFFFFF" d="M203.4,399.3c35.3,11.8,54.1,36.2,52.3,37.7c-1.9,2.4-23.5-17.4-55.1-27.8c-15.5-4.7-31.1-2.4-41.9-0.5
		s-17.9,3.8-18.4,2.8c-0.5-1.4,5.6-5.6,16.5-9.4C167.6,397.9,184.5,394.1,203.4,399.3z"/>
	<path fill="#FFFFFF" d="M314.5,437.9c47.5,17.4,72.5,50.8,70.6,51.8c-1.9,2.8-30.1-26.4-73.9-42.4c-21.7-7.1-43.3-6.6-58.8-5.6
		c-15.5,0.9-25,2.4-25.4,0.9c-0.5-1.4,8.9-5.2,24.5-8C267.4,431.8,290.5,429.9,314.5,437.9z"/>
	<path fill="#FFFFFF" d="M362.5,399.8c0.9-18.8-5.6-36.7-12.7-52.3c-6.6-15.5-13.7-29.7-19.3-41.4c-11.8-23.5-18.8-37.7-17.9-38.6
		c0.9-0.5,10.8,12.7,24,35.3c6.6,11.3,14.1,25,21.7,41c7.5,15.5,15.1,34.8,14.1,56c-1.4,20.7-5.2,38.6,0.9,54.1
		c5.2,15.5,13.2,29.7,19.3,41c12.7,22.6,21.7,36.2,20.2,37.2c-0.9,0.9-11.8-11.3-26.4-33.4c-7.1-11.3-15.5-24.5-21.7-41.4
		C357.3,439.3,361.6,418.1,362.5,399.8z"/>
	<path fill="#FFFFFF" d="M460.4,606.4c-15.5-0.9-29.2,0.5-42.8,0.9s-25.9,0-36.2-2.4c-20.2-5.2-31.1-11.8-30.6-13.2
		c0.5-1.4,12.7,2.8,32,6.1c9.4,1.4,21.2,0.9,34.4,0c12.7-0.9,28.2-2.8,43.8-1.9c7.5,0,15.1,0.5,22.1,0c7.1-0.5,13.2-1.4,15.1-4.7
		c4.7-8.5,0-21.7-1.9-31.1c-4.2-20.2-4.2-33-2.8-33c1.4-0.5,4.2,12.2,9.9,31.1c1.4,4.7,3.3,9.9,4.7,16c0.9,6.1,2.8,13.7-1.9,21.7
		c-1.9,3.8-7.1,7.1-10.8,8s-8,1.4-11.8,1.9C475.9,606.9,467.9,606.4,460.4,606.4z"/>
	<path fill="#FFFFFF" d="M272.6,614.4c-17.9-8-31.5-20.2-44.3-29.7c-6.1-4.7-12.7-8.5-18.4-9.4c-6.6-0.9-13.2-0.9-18.4,0
		c-23.1,4.2-31.1,19.8-32.5,18.4c-0.5-0.5,0.5-4.2,5.2-9.9c4.7-5.2,13.2-12.2,25.9-15.5c6.1-1.4,13.2-1.9,21.2-1.4
		c8.5,0.9,16,5.6,22.6,9.9c13.7,9.4,26.8,20.7,42.8,28.2c32.5,15.1,67.3,8.9,90.4,5.6c23.5-4.2,38.1-8.9,38.6-7.5
		c0.5,1.4-13.2,8-37.2,14.1c-11.8,2.8-26.4,5.6-42.8,6.6C309.8,624.3,290.5,622.9,272.6,614.4z"/>
	<path fill="#FFFFFF" d="M216.1,631.9c-8.9,13.7-20.2,20.7-28.2,25.9s-14.1,7.1-14.6,5.6c-0.9-1.4,3.3-5.2,10.4-11.3
		c6.6-6.1,16.9-14.6,24-25.4c12.7-24,21.2-46.6,24-45.7C234,582,230.2,605,216.1,631.9z"/>
	<path fill="#FFFFFF" d="M161,505.2c0.9-6.1,2.4-15.1,8-19.8c4.7-4.7,10.4-7.5,15.1-8.5c9.9-2.4,15.5,0.5,15.5,1.4
		c0,1.4-5.6,1.9-13.2,5.2c-3.8,1.9-7.5,4.2-10.8,8.5c-3.3,3.3-3.8,8-4.7,15.5c-2.8,14.1-8.5,26.4-16,33c-7.1,6.6-13.2,8-13.7,7.1
		c-0.9-1.4,3.8-4.7,8.5-11.8C154.4,528.8,159.1,517.5,161,505.2z"/>
	<path fill="#FFFFFF" d="M267.9,538.2c25.9,11.3,52.3,13.2,71.1,14.1c18.8,0.9,30.6,0,31.1,1.4c0,1.4-11.3,4.7-31.1,5.6
		c-19.3,0.9-47.1,0.5-75.3-12.2c-27.3-12.7-48.5-29.2-63.1-41.4c-14.6-12.2-22.6-21.2-22.1-22.1c0.9-0.9,10.4,5.6,26.4,16.5
		C220.3,510.9,242,525.9,267.9,538.2z"/>
	<path fill="#FFFFFF" d="M293.3,178.5c5.2,2.8,6.6,4.7,8.5,6.6c0.9,0.9-0.5,3.8-3.8,4.2c-2.8,0.5-6.6,0-9.9-1.9
		c-7.1-3.8-8.5-12.2-5.2-12.7C285.3,173.8,289.1,176.2,293.3,178.5z"/>
	<path fill="#FFFFFF" d="M396.9,289.1c25,35.8,48.5,69.2,70.1,100.3c10.4,16,19.8,31.5,26.8,46.6c7.1,15.1,12.2,31.1,11.8,46.1
		c0,30.1-15.1,50.4-15.1,65.9c-0.5,15.5,1.4,23.5,0.5,23.5c-0.5,0.5-3.8-7.1-4.7-23.5c-0.5-17.4,12.7-37.7,11.8-65.4
		c-0.5-27.3-19.3-57-39.5-88c-21.7-30.1-46.1-64-70.6-99.8l-9.4-13.2c-2.8-4.2-6.6-8.5-8.9-15.1c-1.9-6.1-1.9-11.8-2.4-16.5
		c-0.5-4.7-1.9-8-4.7-10.8c-1.4-1.9-2.8-1.9-5.6-4.2c-3.3-2.8-4.2-5.2-5.6-7.5c-2.4-4.7-4.7-9.4-6.6-13.7
		c-3.8-8.9-7.5-17.9-11.3-26.4c-7.5-16.9-16.5-32-25.9-45.7l-1.9-2.4c-0.9-0.9,0.5,0.5,0.5,0c0,0-0.5,0-0.5-0.5
		c-1.4-0.5-3.3-0.9-5.2-0.9c-3.8-0.5-7.5-0.9-11.3-1.4c0.5-2.8-2.8,2.4-4.2,5.2c-1.9,2.8-3.8,6.1-5.6,8.9
		c-7.1,12.2-13.2,23.5-16.9,33.4c-0.5,1.4-0.9,2.4-0.9,3.3c-0.5-0.5,0.5,0.5,0.9,1.4c1.9,1.4,3.8,2.8,5.6,4.2
		c4.2,2.4,8,4.2,11.3,6.1c7.1,2.8,12.7,6.6,15.5,3.3c3.3-2.4,4.7-3.8,5.2-3.8s-0.5,2.4-3.8,5.2c-0.9,0.9-1.4,1.4-3.3,2.4
		c-1.9,0.5-3.3,0-4.7,0c-3.3-0.5-6.6-1.9-10.4-3.3c-3.8-1.4-8-3.3-12.2-5.6c-2.4-1.4-4.2-2.4-6.6-4.2c-0.9-0.9-2.8-1.9-3.3-5.2
		c0-1.9,0.5-3.3,0.9-4.7c3.8-11.3,9.4-22.6,16.5-35.3c1.9-3.3,3.8-6.1,5.6-9.4c1.4-2.8,2.8-4.7,3.8-6.1c0.9-0.9,0.9-1.4,2.8-2.8
		c3.8-1.9,3.3-0.5,3.8-0.9h1.4c3.8,0,8,0.5,12.2,0.9c2.4,0.5,4.2,0.5,6.6,1.4c0.5,0,1.4,0.5,2.4,0.9c0.9,0.5,2.8,2.4,2.4,2.4
		l1.9,2.4c9.9,13.7,18.8,29.2,27.3,46.6c4.2,8.5,8,17.4,11.8,26.4c1.9,4.2,4.2,8.9,6.1,13.2c0.9,1.9,2.4,4.2,3.3,4.7
		c0.9,0.9,4.7,2.8,6.6,4.7c4.7,4.2,7.1,10.8,7.5,16.9c0.5,5.6,0.5,10.4,1.9,14.6c0.9,3.8,4.7,8,7.5,12.2L396.9,289.1z"/>
	<path fill="#FFFFFF" d="M306.9,202c0.5,1.9,1.4,3.3,2.4,4.7c1.4,1.9,2.4,3.3,3.8,4.7c2.4,2.8,5.2,5.6,7.1,7.5
		c4.2,4.2,7.1,7.1,6.6,8.5c-0.5,1.4-4.7,0.5-10.8-2.8c-2.8-1.4-6.1-3.8-9.4-7.1c-1.9-1.4-3.3-3.3-4.7-5.2c-1.9-2.4-3.3-5.2-4.2-8
		c-4.7-22.1,4.2-36.7,6.1-36.2C306.9,169.1,303.2,185.6,306.9,202z"/>
	<g>
		<path fill="#FFFFFF" d="M243.4,176.6c1.4-3.8,2.8-7.5,4.7-11.3c3.3-8,6.1-15.5,8.9-22.1c0.5-1.9,2.4-4.2,2.8-5.6
			c2.8-0.5,6.1-0.5,8.5-0.9c11.3-0.9,17.9-2.4,17.9-3.8s-7.1-2.8-18.4-3.3c-2.8,0-5.6-0.5-9.4-0.5c-0.5,0-0.9,0-1.4,0
			c0,0-1.4,0-2.4,0.9c-0.5,0.9-0.5,0.9-0.9,1.4c-0.9,0.9-1.4,1.9-1.9,2.8c-0.9,1.9-1.9,3.3-2.8,5.2c-3.8,6.6-6.6,14.1-9.9,22.1
			c-1.4,3.8-3.3,8-4.7,11.8l-1.9,5.6l-0.5,1.4c-0.5,0-0.5,4.2,0,4.2c0.9,2.4,1.4,2.8,2.4,3.8c0.5,0.5,0.9,0.9,0.9,0.9h11.3
			c-1.4-1.4-3.8-5.6-4.7-7.1l0,0v-0.5L243.4,176.6z"/>
	</g>
	<path fill="#FFFFFF" d="M233.5,155.4c-2.4,5.6-4.7,11.3-7.1,16.5l-0.5,1.9l-0.5,0.9v0.5l0,0l0,0l0,0c2.8,0.9-3.8-1.4-3.3-1.4l0,0
		l0,0c0.5,0.5,4.2-1.4,3.3-0.5c0,0,0.5,0.5,0.5,0.9c0.9,1.4,2.8,3.3,4.2,4.7c5.6,5.6,9.4,8.5,9.4,9.4c-0.5,1.9-6.6,0.9-13.7-4.2
		c-1.9-1.4-3.8-2.4-6.1-4.7c-0.9-1.4-2.8-1.4-2.8-7.5c0.5-1.9,0.9-2.8,1.4-4.2c1.9-5.2,3.8-10.8,6.1-16.9c2.4-6.1,5.2-11.3,8-16.5
		c1.4-1.4,0-1.9,4.7-5.2c3.3-0.9,3.3,0,5.2-0.5c2.4,0,4.7,0.5,7.1,0.5c8.5,0.9,13.7,1.9,13.7,3.3s-5.2,2.8-13.7,3.8
		c-1.9,0.5-4.2,0.5-6.6,0.9H241h-0.9h-0.5l0,0l0,0l0,0l0,0c0,0.9-0.9-7.5-0.5-3.8c0,0.5,0,0.9,0.5,0.9c3.3,2.8,1.9,1.9,1.9,2.4
		s-0.5,0.9-0.9,1.4C238.2,144.1,236.3,149.8,233.5,155.4z"/>
	<path fill="#FFFFFF" d="M263.6,221.8c-5.6,3.3-11.8,2.8-16.5,2.4c-5.2-0.5-28.7-8.5-30.6-9.9c-1.4-1.4-3.3-3.8-3.8-5.6
		c-2.4-7.5-0.5-13.7,5.2-21.7c5.6-8,7.5-5.2,7.5-4.7c0,0.5-6.1,5.6-8,10.8c-0.9,2.8-1.4,8,0.9,13.2c1.4,3.8,9.9,7.1,16.9,8.9
		c7.5,1.9,17.9,3.8,24,0.5c2.8-1.4,4.7-4.7,5.2-8.5c0-0.9,0-1.9,0-2.8s0,0-0.5-0.9c-0.9-0.9-2.4-2.4-4.2-3.3
		c-7.1-3.8-14.1-6.6-20.2-8.5c-11.8-3.3-18.8,5.6-18.8,4.2c0-0.9,6.1-12.2,20.2-10.4c6.6,1.4,14.1,3.3,22.6,7.5
		c1.9,0.9,4.2,2.4,6.1,4.7c0.9,0.9,2.4,3.8,2.4,5.2s0,2.8,0,4.2C272.6,213.8,269.3,218.5,263.6,221.8z"/>
	<path fill="#FFFFFF" d="M295.2,256.2c15.5,6.1,28.7,8,37.2,17.4c8,9.4,9.9,17.4,8.9,17.4c-1.4,0.5-5.6-9.9-13.2-16
		c-7.5-5.6-20.7-6.6-36.2-12.2c-7.5-2.4-16.5-6.1-22.1-11.3c-6.1-5.2-14.1-15.5-17.9-20.2c-6.6-8.9-4.7-7.1-3.8-8
		c0.9-0.9,2.4,0,10.4,7.5c3.8,3.8,9.4,11.3,15.1,15.5C278.7,250.5,286.7,252.9,295.2,256.2z"/>
	<path fill="#FFFFFF" d="M417.6,562.2c11.8,0.9,21.2-1.9,21.7-0.5c0.5,0.9-9.4,6.6-22.1,5.6c-12.2-0.9-21.2-6.6-21.2-8
		C395.9,557.5,405.8,561.2,417.6,562.2z"/>
</g>
</svg>
