<?xml version="1.0" encoding="utf-8"?>
<!-- Generator: Adobe Illustrator 18.0.0, SVG Export Plug-In . SVG Version: 6.00 Build 0)  -->
<!DOCTYPE svg PUBLIC "-//W3C//DTD SVG 1.1//EN" "http://www.w3.org/Graphics/SVG/1.1/DTD/svg11.dtd">
<svg version="1.1" id="Layer_1" xmlns="http://www.w3.org/2000/svg" xmlns:xlink="http://www.w3.org/1999/xlink" x="0px" y="0px"
	 viewBox="0 0 612 792" enable-background="new 0 0 612 792" xml:space="preserve">
<g>
	<path fill="#FFFFFF" d="M270.7,306.1c89.9-4.2,163.4-14.6,163.8-10.8c0.5,2.4-72,17.9-163.8,22.1c-2.8,0-5.6,0-8.5,0H258
		c-1.4,0-1.4,0-2.4,0.5c-3.8,1.4-7.5,5.6-11.3,9.4c-3.8,3.8-7.5,8-11.8,12.2c-1.4,0.9-2.4,1.9-4.2,3.3c-1.4,1.4-6.1,1.4-7.5,0
		c-3.3-1.9-5.2-3.8-7.1-5.6c-3.8-3.8-7.5-7.5-10.8-11.3c-1.4-1.9-3.3-3.8-4.7-5.6l-2.4-2.8l-0.5-1.4l0,0l0,0l0,0
		c1.4,0.5-3.3-1.4,3.3,1.4l0,0h-1.9c-8.9,0-16.9,0-24.5-0.9c-30.1-2.4-48-8.9-47.5-9.9c0.5-1.9,18.4,1.9,48,2.4c7.5,0,15.5,0,24-0.5
		h1.4l0,0c6.6,3.3,1.9,0.9,3.3,1.4l0,0l0,0l0.5,0.5l0.5,0.5l2.4,2.8c1.4,1.9,3.3,3.8,4.7,5.2c3.3,3.8,6.6,7.1,10.4,10.4
		c1.9,1.4,3.8,3.3,5.2,3.8c0,0,0.5,0,0,0c0,0-0.5,1.9-0.5,2.8c0-0.9,0-1.9-0.5-2.8c-0.5,0,0,0,0,0c0.5,0,1.4-0.9,2.4-1.9
		c3.3-3.3,7.1-8,11.3-11.8c4.2-4.2,8-8.9,15.1-11.8c1.4-0.9,4.2-0.9,6.1-0.9h4.2C265,306.1,267.9,306.1,270.7,306.1z"/>
	<path fill="#FFFFFF" d="M31.5,358.8c-10.4,29.7-6.6,62.6-1.4,89.9c2.8,13.7,7.1,26.4,11.8,38.1c2.4,5.6,5.2,11.3,7.5,16
		c1.4,2.4,2.8,4.7,4.2,7.1l0.9,1.9l0.5,0.9l0,0c0-0.9,1.4,7.5,0.5,3.8l0,0l0,0v0.5l-0.9,3.8c-10.8,41.9-6.1,69.2-7.5,69.2
		c-0.9,0.5-8.9-27.3,0.9-71.6l0.9-4.2v-0.5l0,0l0,0c-0.5-3.3,0.9,4.7,0.5,3.8V517L49,516l-1.4-1.9c-1.9-2.4-3.3-4.7-4.7-7.5
		c-2.8-5.2-6.1-10.8-8.5-16.5c-5.2-11.8-9.9-25-13.2-39.5s-5.2-30.1-5.6-46.1c-0.9-16,0.9-33.9,7.1-50.4
		c5.6-16.5,15.5-31.1,27.3-41.4c6.1-5.2,12.2-9.4,18.8-12.7c6.6-3.8,14.6-4.7,17.9-7.5c0.9-0.9,2.4-1.9,3.3-3.3
		c1.9-1.9,5.2-2.8,7.1-2.8c4.2-0.5,7.5,0.5,10.8,1.4c0.5,0,0.9,0.5,1.4,0.5l0,0c-5.6,0-1.4,0-2.8,0l0,0h0.5h0.5l2.4-0.9l4.2-1.4
		c2.8-0.9,5.6-1.9,8.5-3.3c10.8-4.2,21.2-8.5,30.1-12.7c36.2-16.9,55.6-33.9,56.5-33c0.9,0.9-17.4,20.7-53.7,40
		c-8.9,4.7-19.3,9.4-30.1,14.1c-2.8,0.9-5.6,2.4-8.5,3.3l-4.2,2.8l-2.4,0.9h-0.5h-0.5l0,0c-1.4,0,2.8,0-2.8,0l0,0
		c-0.5,0-0.5,0-0.9-0.5c-2.8-0.9-5.6-1.4-7.5-0.9c-0.9,0-1.4,0.5-1.9,0.9c-0.9,0.9-2.4,2.4-4.2,3.8c-7.5,5.6-13.7,5.2-19.3,8.9
		c-5.6,2.8-11.8,7.1-16.9,11.8C45.2,331.5,36.7,343.7,31.5,358.8z"/>
	<path fill="#FFFFFF" d="M104.5,484c8.5,15.5,22.6,23.5,36.7,26.4s27.3,1.9,38.1-0.5c21.7-5.2,33.4-14.1,34.4-12.7
		c0.9,0.9-9.9,12.7-32.5,20.2c-11.3,3.8-25.9,5.6-41.4,2.8c-15.5-1.9-33.9-12.2-43.3-30.1c-19.3-35.8-16.9-74.4-12.2-98.9
		c4.7-25.4,10.8-39.5,12.2-39.1s-2.4,15.5-5.2,40.5C87.6,416.2,87.6,452,104.5,484z"/>
	<path fill="#FFFFFF" d="M119.1,548.5c4.2,22.1,2.8,42.4,0.9,41.9s-3.8-17.9-8-41c-2.4-24.5,6.6-42.8,8-41.4
		C121.9,508.5,116.8,526.4,119.1,548.5z"/>
	<path fill="#FFFFFF" d="M344.6,516.5c33-3.8,59.8-22.1,76.7-37.7c16.9-15.5,25.4-28.2,26.4-27.3c0.9,0.9-5.2,15.1-21.7,33
		s-44.7,39.1-80.5,43.3c-35.8,3.8-66.8-8-88-16.9c-21.2-9.9-33-18.8-32-20.2c0.5-1.4,13.2,5.2,34.4,12.7
		C281,510.4,311.2,519.8,344.6,516.5z"/>
	<path fill="#FFFFFF" d="M217.5,547.6c7.5,23.1,4.7,43.3,2.8,42.8c-2.4,0-2.8-18.8-9.9-40c-4.2-12.7-0.9-24.5,1.4-31.5
		c2.4-7.5,5.2-11.3,6.1-10.8s0,5.2-0.9,12.7C215.6,527.3,213.7,537.7,217.5,547.6z"/>
	<path fill="#FFFFFF" d="M217,421c-0.9,27.3,4.7,49.9,1.9,50.8c-2.4,1.4-13.2-20.7-11.8-51.3c1.9-30.1,12.7-51.3,15.1-50.4
		C225,371,218.4,393.6,217,421z"/>
	<path fill="#FFFFFF" d="M455.7,530.2c15.5,20.7,22.6,45.2,21.7,63.1c-4.7-15.5-14.6-36.2-29.2-56c-8.9-11.8-10.4-26.8-8.9-38.6
		c0.9-11.8,3.8-22.1,5.6-29.7c2.8-16-2.4-25.4-1.4-25.9c0.9-1.4,9.9,8,8.5,27.3C450.1,486.9,442.5,511.8,455.7,530.2z"/>
	<path fill="#FFFFFF" d="M467,557c-10.4,19.8-21.7,33-24,31.5c-2.4-1.9,5.2-17.9,15.1-36.7C463.2,541,469.4,552.3,467,557z"/>
	<path fill="#FFFFFF" d="M589.4,588.5c0.5-11.3,0.9-25.4,0-40c0-40.5-16-68.7-13.7-70.6c0.9-0.9,7.1,5.2,12.7,17.4
		S603.5,568.8,589.4,588.5z"/>
	<path fill="#FFFFFF" d="M507.5,306.1c-12.2-6.1-24.5-10.4-37.2-12.7c-6.1-1.4-12.2-2.4-18.4-2.8c-1.4,0-2.8-0.5-4.2-0.5h-0.5l0,0
		l0,0c-1.4-0.5,2.8,0.9-2.8-0.9l-0.5-0.5l-0.9-0.5l-1.9-1.4c-2.4-1.9-5.2-3.8-7.5-5.6c-19.8-13.7-38.6-25.9-55.1-32
		c-13.2-4.7-24.5-8.5-33.4-10.8c0.9-0.5,0.5-7.1,3.3-4.7c8.9,1.9,19.8,4.2,32.5,8c17.9,5.6,37.2,17.4,57.9,30.6
		c2.4,1.9,5.2,3.8,7.5,5.2l1.9,1.4l0.9,0.9l0.5,0.5c-5.2-1.9-1.4-0.5-2.4-0.9l0,0l0,0h0.5c1.9,0,3.3,0,4.7,0.5
		c6.6,0.5,12.7,1.4,19.3,2.8c13.2,2.8,26.4,7.1,39.1,13.2c25.9,12.7,47.1,35.3,57,60.7c10.4,25,13.2,49,15.1,69.2
		c2.8,40-0.9,65-2.4,65c-1.4,0,0-25-4.7-64c-2.4-19.3-6.6-42.8-16.5-65.4C550.8,338.1,532,318.3,507.5,306.1z"/>
	<path fill="#FFFFFF" d="M334.7,237.8c-7.5,21.2-12.7,39.1-14.6,38.6c-1.9-0.5-0.5-19.8,7.5-41.9c7.5-22.1,18.8-37.7,21.2-35.8
		C349.8,200.2,342.2,216.2,334.7,237.8z"/>
	<path fill="#FFFFFF" d="M208.6,244.4c-5.2,23.5-16.5,38.1-18.4,36.7c-2.8-1.4,6.6-15.1,10.8-35.8c3.3-20.7,0-42.8,2.8-43.3
		C206.2,201.6,212.3,219.9,208.6,244.4z"/>
	<path fill="#FFFFFF" d="M345.5,207.7c1.9,9.4,2.4,23.1,9.4,37.2c5.6,11.3,12.7,17.9,19.8,22.6c7.1,4.7,17.4,7.5,16.9,9.4
		c-2.4,3.3-30.6-8.5-39.5-24c-8.9-15.5-12.2-26.8-12.7-36.7C338.5,208.6,344.1,201.1,345.5,207.7z"/>
</g>
</svg>
