<?xml version="1.0" encoding="utf-8"?>
<!-- Generator: Adobe Illustrator 18.0.0, SVG Export Plug-In . SVG Version: 6.00 Build 0)  -->
<!DOCTYPE svg PUBLIC "-//W3C//DTD SVG 1.1//EN" "http://www.w3.org/Graphics/SVG/1.1/DTD/svg11.dtd">
<svg version="1.1" id="Layer_1" xmlns="http://www.w3.org/2000/svg" xmlns:xlink="http://www.w3.org/1999/xlink" x="0px" y="0px"
	 viewBox="0 0 612 792" enable-background="new 0 0 612 792" xml:space="preserve">
<g>
	<path fill="#FFFFFF" d="M273.5,667.6c10.8-3.8,21.2,3.3,27.8,5.2c7.5,2.4,15.5,2.4,23.5,0.9c8-0.9,16.5-3.8,25-3.8
		c3.8,0,7.5-0.5,10.8-1.4c0.9,0,1.9-0.5,2.4-0.9c0.5,0,0.9-0.5,0.9-0.5c8,0.5,2.4,0,4.2,0.5l0,0l0,0h0.5l0.5,0.5
		c1.4,0.9,2.8,1.4,4.7,2.4c6.6,2.4,12.2,1.9,17.4-2.4c4.7-3.3,8.5-10.8,8-14.1c1.4,0.5-2.4-0.5-5.2,0s-6.1,0.9-8.9,1.4l-2.4,0.5
		l-0.9,0.5h-0.5h-0.5l0,0c2.4,0.5-3.3-0.5-2.8-0.5l0,0l-3.8-2.8c-2.4-1.4-5.2-3.3-7.1-4.2c-11.8-5.2-19.3-11.3-27.8-14.1
		c-8.9-3.8-16-8-21.2-11.8c-10.8-7.5-15.5-13.2-15.1-13.7c0.5-0.5,6.1,4.2,16.9,10.8c5.6,3.3,12.7,7.1,21.2,9.9
		c8.9,2.4,18.8,9.4,28.7,13.2c3.3,1.4,5.6,2.8,8.5,4.7c1.4,0.9,2.8,1.9,3.8,2.8l0,0c0.5,0-5.2-0.9-2.8-0.5l0,0h0.5h0.5l1.4-0.5
		l2.4-0.5c3.3-0.9,6.6-1.4,9.9-1.9c1.9,0,3.8-0.5,5.6,0c0.9,0,2.4,0.5,3.8,0.9c1.9,0.9,2.8,2.8,3.3,4.2c1.4,10.4-4.2,16.5-10.4,22.1
		s-16.9,7.5-25,3.8c-1.9-0.9-3.8-1.9-6.1-2.8l-0.9-0.5l-0.5-0.5l0,0l0,0c1.9,0-4.2-0.5,3.8,0.5c-0.9,0.5-1.4,0.5-1.9,0.9
		c-0.9,0.5-1.9,0.5-3.3,0.9c-4.2,0.9-8.5,1.4-12.7,1.9c-7.5,0-15.1,2.4-24,3.8c-8.5,1.4-17.9,1.4-27.3-1.4c-9.4-3.3-16-7.5-22.6-5.2
		c-3.8,0.9-8.5,3.3-13.7,3.8c-4.7,0.5-9.4,0.5-14.6-0.5c-10.4-1.9-18.4-10.8-20.2-20.2c-0.5-2.4-1.4-4.7,0-8.9
		c0.9-2.4,1.9-4.2,3.3-6.1c1.9-3.8,4.2-7.1,6.1-10.8c4.2-7.1,8-13.7,12.2-20.2c2.4-3.8,3.3-5.2,3.8-8.9c0.5-3.3,0.5-7.1,0.5-10.8
		c0-7.1-0.5-14.1-0.5-21.2c-0.5-13.7-0.9-26.4-2.4-37.7c-4.7-46.1-11.8-74.4-10.4-74.4c0.9-0.5,9.9,27.3,16.5,73.9
		c1.4,11.8,2.8,24.5,3.3,38.1c0.5,7.1,0.9,14.1,0.9,21.2c0,3.8,0,7.5-0.5,11.8c0,3.8-2.8,9.4-4.7,12.2c-3.8,6.6-8,13.7-11.8,20.2
		c-1.9,3.3-3.8,7.1-6.1,10.8c-0.9,1.9-1.9,3.8-2.4,5.2c0,0,0,1.9,0.5,3.8c1.9,7.1,7.1,12.7,14.1,14.1c3.3,0.9,7.5,0.9,11.3,0.5
		C265.5,670.9,268.8,669.5,273.5,667.6z"/>
	<path fill="#FFFFFF" d="M304.1,624.3c-5.2,2.8-9.4,3.3-14.6,1.9c-6.1-3.3-5.6-7.5-6.1-10.4c-0.5-5.6,1.4-8.9,2.4-8.9
		c1.4,0,1.9,3.3,3.3,7.5c0.5,1.9,2.4,4.7,3.3,4.2c1.4,0.5,5.2,0,6.6-1.4c2.4-0.5,0-9.4-1.4-13.2c-1.4-4.7-2.8-8-1.4-8.5
		c0.9-0.5,3.8,1.4,7.1,5.6c1.4,2.4,3.3,5.2,4.7,8.9c0.5,1.9,0.9,4.2,0.9,6.6C308.4,618.7,306.9,622.4,304.1,624.3z"/>
	<path fill="#FFFFFF" d="M336.6,425.7c6.6-24,11.3-48,7.1-68.7c-4.2-21.2-11.8-39.1-21.2-52.7c-4.7-6.6-8.5-14.6-8.9-21.7
		c-0.9-6.6-0.9-12.7-0.5-17.4c0.5-9.4,1.9-14.6,2.4-14.6s0.5,5.2,0.9,14.6c0.9,9.4,0,23.1,11.3,35.3c10.4,13.7,19.3,32.5,24,54.6
		c5.2,23.1,0,48-6.6,72.5c-7.1,25-15.5,48-21.2,68.7c-5.6,20.7-8.9,40.5-11.8,57c-4.7,33-5.6,53.7-6.6,53.7
		c-0.9,0-2.8-20.7,0.5-54.1c1.9-16.5,4.2-36.7,9.9-58.4C321.5,472.7,330,449.7,336.6,425.7z"/>
	<path fill="#FFFFFF" d="M341.3,206.8c28.2-49.9,15.1-97,18.4-97c0.9-0.5,4.7,10.8,6.1,29.7c0.5,9.4,0.5,20.7-2.4,33
		c-2.8,12.2-8.5,25-14.1,37.7c-12.7,25-15.5,49.4-17.4,67.8c-1.9,18.4-1.9,29.7-3.3,29.7c-0.9,0-2.8-11.3-2.8-30.1
		C325.8,259.5,328.1,232.2,341.3,206.8z"/>
	<path fill="#FFFFFF" d="M235.4,209.6c3.3,6.6,6.1,13.7,8.5,20.7c2.4,6.6,2.8,15.5,1.9,21.7c-1.9,13.7-8.5,24-8.5,33
		c-0.5,8.9,2.8,16,4.7,21.2c2.4,4.7,3.8,7.5,3.3,8c-0.5,0.5-2.8-1.4-6.1-6.1c-2.8-4.7-7.5-11.8-8-22.6c0-11.3,5.6-21.7,7.1-33.9
		c2.4-11.8-4.2-24-10.4-37.7c-6.6-13.2-13.2-25.9-17.4-38.6c-5.2-12.7-4.7-25.9-3.8-35.3c1.9-19.8,4.7-31.5,5.6-31.5
		c1.4,0,0.5,12.2,0.5,31.5c0,9.9,0,20.7,5.2,32C222.2,183.7,228.8,196.4,235.4,209.6z"/>
	<path fill="#FFFFFF" d="M230.2,409.7c1.9,21.7,8,42.4,19.3,57c2.8,3.8,6.1,6.6,9.4,8.9c1.4,0.9,3.3,1.9,4.7,1.9
		c0.5,0,0-0.5,0.5,0.5c0-0.9,0-0.5,0.5-0.9s1.4-0.9,1.9-1.4c5.2-5.6,8.9-13.2,12.7-19.3c13.7-25.9,20.7-42.8,21.7-42.4
		c0.9,0.5-3.8,17.9-16.5,45.2c-3.3,6.6-6.6,14.1-12.7,21.7c-1.4,1.4-3.8,4.7-8.5,4.2c-3.3-0.5-5.6-1.4-8-2.8
		c-4.7-2.8-8-6.1-11.8-10.4c-13.2-16-20.2-38.1-22.1-61.2c-1.4-23.1,0.9-44.7,5.2-64.5c2.4-9.9,5.6-18.8,10.8-26.8
		s12.7-13.7,20.7-15.5c7.1-2.4,15.1-2.8,21.2-0.5c6.1,1.9,10.4,5.2,13.7,7.5c6.6,5.2,9.4,8.9,8.9,9.4s-3.8-2.4-10.8-6.6
		c-7.1-3.8-17.9-9.9-31.1-4.2c-13.2,4.2-21.7,19.8-25.4,38.6C230.7,366.3,228.8,387.5,230.2,409.7z"/>
	<path fill="#FFFFFF" d="M261.7,201.1c0-41.4,7.1-73.9,9.4-73.4c2.8,0.5-0.9,33.4-0.9,73.4c0.9,40,10.8,71.6,8,72.5
		C276.8,274.1,262.7,243,261.7,201.1z"/>
	<path fill="#FFFFFF" d="M280.1,269.4c7.1,3.3,8,7.5,9.9,10.8c1.9,3.3,2.8,6.6,3.8,9.4c1.4,5.6,1.4,8.9,0.5,9.4
		c-0.9,0.5-3.3-2.4-6.1-7.1c-1.4-2.4-2.8-5.2-4.7-8c-1.4-2.8-4.7-6.6-5.2-6.6c0.9-0.5-3.3,1.9-5.2,4.2c-2.4,2.4-4.2,5.2-6.1,7.1
		c-3.3,4.2-6.1,6.6-7.1,6.1c-0.9-0.5-0.5-4.2,1.9-9.4c0.9-2.8,2.8-5.6,5.2-8.9c1.4-1.4,2.4-3.3,4.2-4.7
		C272.6,270.8,275.4,268,280.1,269.4z"/>
</g>
</svg>
