<?xml version="1.0" encoding="utf-8"?>
<!-- Generator: Adobe Illustrator 18.0.0, SVG Export Plug-In . SVG Version: 6.00 Build 0)  -->
<!DOCTYPE svg PUBLIC "-//W3C//DTD SVG 1.1//EN" "http://www.w3.org/Graphics/SVG/1.1/DTD/svg11.dtd">
<svg version="1.1" id="Layer_1" xmlns="http://www.w3.org/2000/svg" xmlns:xlink="http://www.w3.org/1999/xlink" x="0px" y="0px"
	 viewBox="0 0 612 792" enable-background="new 0 0 612 792" xml:space="preserve">
<g>
	<path fill="#FFFFFF" d="M84.3,567.8c-5.6-26.8,0.5-50.8,7.5-67.3c5.2-9.9,10.4-17.9,14.1-24.5l-3.8-5.6
		c-5.6,6.1-11.8,15.1-17.4,26.8c-4.2,8.5-8.9,18.8-11.8,31.1c-2.8,12.7-2.4,26.8,0,41c1.9,14.1,8.5,28.2,11.8,37.7
		c0.9,2.8-1.4,10.8-0.9,15.5c0,5.6,0,10.8,0,15.5c1.4,18.8,4.2,29.7,5.6,29.7c1.4,0,0.9-11.8,1.9-29.7c0-4.7,0.5-9.4,0.9-14.6
		c0-5.6,2.8-8.9,1.9-18.4C91.3,592.3,86.2,581.5,84.3,567.8z"/>
	<path fill="#FFFFFF" d="M233.5,290.1c-41.4-2.4-81.9,11.8-103.1,41.4c-22.1,28.2-35.3,59.8-36.2,86.6c0.9,26.4,9.9,48.5,14.6,62.6
		c5.6,14.6,9.9,22.1,9.4,22.1c-0.5,0.5-6.1-6.6-13.2-20.7c-6.6-14.6-16.5-34.8-18.4-64.5c0.5-29.2,13.2-62.6,36.2-92.7
		c22.1-32.5,67.8-48.5,110.6-46.1c8.9,0.9,18.4-3.8,28.2-7.1c5.2-1.9,9.9-3.8,15.5-4.7c6.6-1.4,12.7,0.5,17.4,1.9
		c5.2,1.4,9.9,3.3,14.6,4.7l7.1,2.8c0.5,0.5,3.3,1.4,2.4,0.9l3.8,0.5c9.4,1.4,18.8,3.3,28.2,4.7c36.2,6.6,69.2,13.7,96,21.7
		c13.7,3.8,25.9,8.9,35.8,12.7c10.4,3.8,19.3,6.6,26.8,8.5c15.1,3.8,23.5,2.8,23.5,3.3c0.5,0.9-8.9,3.3-24.5,0.5
		c-8-1.4-17.4-3.8-27.8-7.1c-10.8-3.8-22.1-8-35.8-11.3c-26.8-7.1-59.3-13.2-96-18.8c-8.9-1.4-18.4-2.8-27.8-4.2l-3.8,0
		c-3.3-0.9-2.8-0.9-4.7-1.4l-6.6-2.8c-4.7-1.4-9.4-3.3-13.7-4.7c-4.7-1.4-8.9-2.8-12.2-1.4c-4.2,0.9-8.9,2.8-14.1,4.7
		C256.1,285.4,246.2,291,233.5,290.1z"/>
	<path fill="#FFFFFF" d="M451.9,201.1c-4.2,18.8-15.1,31.5-23.1,40c-8.5,8-15.1,11.3-16,10.4c-0.9-0.9,3.8-6.6,10.4-15.1
		c6.6-8.9,15.1-21.7,18.4-36.7c5.6-33,4.7-61.2,8-61.2C451.9,137.5,458.1,165.8,451.9,201.1z"/>
	<path fill="#FFFFFF" d="M390.3,228.9c11.8-5.2,22.6-9.9,32-14.6c8.9-4.7,19.3-9.9,20.7-14.6c4.7-15.1,5.2-25.9,6.6-25.9
		s3.8,10.4,0.5,27.8c-3.8,11.8-14.1,15.5-23.1,21.7c-9.9,5.6-20.7,10.8-32.5,16c-23.5,9.9-44.3,18.4-57.4,27.8
		c-13.7,8.9-21.2,16-22.6,14.6c-0.9-0.9,0-5.6,13.2-16.9C340.4,252.9,367.2,238.8,390.3,228.9z"/>
	<path fill="#FFFFFF" d="M485.8,274.1c10.8,28.2,19.3,51.3,16.9,52.7c-2.8,1.4-15.5-20.2-26.8-48.5c-11.3-28.2-18.4-51.8-15.5-53.2
		C463.2,223.7,474.5,245.4,485.8,274.1z"/>
	<path fill="#FFFFFF" d="M260.8,591.8c-6.6,12.7-13.7,24.5-18.8,35.3c-5.2,10.4-5.2,21.2-5.2,30.1c0.5,18.4,2.4,30.1,0.9,30.1
		c-1.4,0.5-6.1-10.8-8.5-29.7c-0.9-9.4-1.9-22.1,3.8-34.8c5.2-12.2,11.8-23.5,18.4-36.2c3.3-6.1,6.1-12.7,8.5-18.4
		c1.9-5.2,2.8-11.8,3.3-17.4c0.9-11.8,0.9-23.1,0.5-32.5c-0.5-18.8-0.9-30.1,0.5-30.6c1.4,0,4.7,11.3,7.1,30.1
		c0.9,9.4,2.4,20.7,1.4,33.9c-0.5,6.6-0.9,13.2-3.3,20.7C266.9,578.7,264.1,585.2,260.8,591.8z"/>
	<path fill="#FFFFFF" d="M420.9,563.6c-12.2-0.9-24.5-2.4-36.2-5.6c-11.8-2.8-22.1-8.5-31.5-14.6c-18.8-11.8-30.1-29.7-39.5-41
		c-19.8-24.5-42.8-23.5-41.9-25.4c0-0.5,5.2-1.4,14.1,0.5c8.9,1.9,22.1,7.5,33.4,19.8s21.7,27.8,39.1,37.7
		c16.9,11.8,38.6,16,62.6,17.9c24,1.4,47.1,0.5,67.8-1.4c10.4-0.9,20.2-2.4,29.2-4.2c8.9-1.9,24-0.5,21.7,0.9
		c-5.6,4.2-13.2,5.6-19.8,7.5c-9.4,2.4-19.3,4.2-30.1,5.6C469.4,563.6,445.8,565,420.9,563.6z"/>
	<path fill="#FFFFFF" d="M342.2,615.4c13.7,41,31.5,71.1,30.1,72c-3.3,2.8-26.4-26.4-40.5-68.7c-13.7-42.4-16.9-77.7-14.1-78.1
		C321.1,540.1,329.1,574.4,342.2,615.4z"/>
	<path fill="#FFFFFF" d="M301.8,608.8c24,16.9,47.5,27.3,46.1,30.6c-0.9,2.4-25.9-3.3-52.7-22.1c-25.4-21.2-35.3-45.7-33.4-46.6
		C264.6,568.8,279.2,590.4,301.8,608.8z"/>
	<path fill="#FFFFFF" d="M483,164.4c9.9,6.1,18.8,13.2,25.9,20.2c7.5,7.5,12.2,11.8,19.3,12.2c14.6,2.4,7.1,8-0.9,7.5
		c-3.8,0-8.9-0.9-13.7-3.3c-4.7-2.8-8-6.1-11.8-8.9c-7.5-6.1-16-12.2-25.4-18.4c-20.2-12.7-33.4-31.1-39.5-45.2
		c-6.6-14.1-7.5-23.5-6.1-24C434,102.7,445.8,140.4,483,164.4z"/>
	<path fill="#FFFFFF" d="M395.4,607.4c15.5,4.2,28.7,8.5,28.2,11.8c-0.5,2.8-14.1,3.3-31.1-1.4c-17.9-5.6-26.8-16.9-25.4-19.3
		C369.1,595.6,381.3,602.7,395.4,607.4z"/>
	<path fill="#FFFFFF" d="M396.4,644.6c14.6,4.7,26.8,6.6,27.3,9.4c0.5,2.8-14.1,6.1-30.6,0.9c-17.4-5.6-25.4-17.9-23.5-19.8
		C371.9,632.3,382.7,640.3,396.4,644.6z"/>
	<path fill="#FFFFFF" d="M535.7,590c5.2,0,2.8,4.7,0,5.2c-47.5,6.6-48,66.4-53.2,66.4c-2.8,0-0.5-28.2,10.8-47.1
		C505.6,596.1,519.7,592.3,535.7,590z"/>
</g>
</svg>
