<?xml version="1.0" encoding="utf-8"?>
<!-- Generator: Adobe Illustrator 18.0.0, SVG Export Plug-In . SVG Version: 6.00 Build 0)  -->
<!DOCTYPE svg PUBLIC "-//W3C//DTD SVG 1.1//EN" "http://www.w3.org/Graphics/SVG/1.1/DTD/svg11.dtd">
<svg version="1.1" xmlns="http://www.w3.org/2000/svg" xmlns:xlink="http://www.w3.org/1999/xlink" x="0px" y="0px"
	 viewBox="0 0 150 150" enable-background="new 0 0 150 150" xml:space="preserve">
<g id="Layer_1">
</g>
<g id="Note">
	<g>
		
			<rect x="107.6" y="60" transform="matrix(0.2331 -0.9725 0.9725 0.2331 39.3332 171.7628)" fill="#4788C7" width="42" height="1.9"/>
		<g>
			<path fill="#B6DCFE" stroke="#4788C7" stroke-width="2" stroke-miterlimit="10" d="M97.7,119.2c0,0-18.2,4.8-18.8,4
				c-0.7-0.8,11.6-15.4,11.6-15.4L121,88.6l7.2,11.4L97.7,119.2L97.7,119.2z"/>
			<polygon fill="#E6F3FC" stroke="#4788C7" stroke-width="2" stroke-miterlimit="10" points="121,88.6 129.1,83.5 136.3,94.9 
				128.2,100 			"/>
			<path fill="#B6DCFE" stroke="#4788C7" stroke-width="2" stroke-miterlimit="10" d="M136.3,94.9c4.2-2.7,9.2-4.5,5.2-11.2
				c-4-6.8-8.2-2.8-12.4-0.2L136.3,94.9z"/>
			<polygon fill="#B6DCFE" stroke="#4788C7" stroke-width="2" stroke-miterlimit="10" points="91.2,107.8 93.2,110.9 93.7,111.8 
				94.3,112.6 96,115.5 96.5,116.1 96.8,116.7 98.1,118.7 			"/>
		</g>
		
			<rect x="-3.8" y="59.9" transform="matrix(0.2331 -0.9725 0.9725 0.2331 -29.9221 83.8125)" fill="#4788C7" width="84" height="1.9"/>
		
			<rect x="47.5" y="30.4" transform="matrix(0.9725 0.2331 -0.2331 0.9725 9.8286 -20.4011)" fill="#4788C7" width="87.5" height="1.9"/>
		
			<rect x="28.9" y="105.2" transform="matrix(0.9725 0.2331 -0.2331 0.9725 26.1654 -9.0169)" fill="#4788C7" width="44.6" height="1.9"/>
		<rect x="54.4" y="65" transform="matrix(0.9725 0.2331 -0.2331 0.9725 16.9143 -11.1)" fill="#4788C7" width="2" height="2"/>
		<rect x="49.8" y="84.5" transform="matrix(0.9725 0.2331 -0.2331 0.9725 21.328 -9.4746)" fill="#4788C7" width="2" height="2"/>
		
			<rect x="52.1" y="74.7" transform="matrix(0.9725 0.2331 -0.2331 0.9725 19.1152 -10.2895)" fill="#4788C7" width="2" height="2"/>
		<rect x="59" y="90.6" transform="matrix(0.9725 0.2331 -0.2331 0.9725 23.436 -15.1989)" fill="#4788C7" width="34" height="2"/>
		<rect x="61.2" y="82" transform="matrix(0.9725 0.2331 -0.2331 0.9725 21.6312 -17.1218)" fill="#4788C7" width="44" height="2"/>
		
			<rect x="63.6" y="72.3" transform="matrix(0.9725 0.2331 -0.2331 0.9725 19.4303 -17.9323)" fill="#4788C7" width="44" height="2"/>
		
			<rect x="65.9" y="62.5" transform="matrix(0.9725 0.2331 -0.2331 0.9725 17.2235 -18.745)" fill="#4788C7" width="44" height="2"/>
		
			<rect x="56.8" y="55.3" transform="matrix(0.9725 0.2331 -0.2331 0.9725 14.7075 -11.9127)" fill="#4788C7" width="2" height="2"/>
		
			<rect x="45.9" y="32" transform="matrix(0.9725 0.2331 -0.2331 0.9725 11.3071 -19.6622)" fill="#98CCFD" width="86" height="12.1"/>
	</g>
</g>
<g id="Phone">
	<g>
		<polygon fill="#DFF0FE" stroke="#4788C7" stroke-width="2" stroke-miterlimit="10" points="59.5,43.7 74,109.8 22.7,120.7 8.2,55 
					"/>
		<path fill="#B6DCFE" stroke="#4788C7" stroke-width="2" stroke-miterlimit="10" d="M8.2,55c0,0,0.3,1.3-1-4.4s4.5-7,4.5-7
			l39.9-8.8c0,0,5.6-1.2,6.7,3.8s1.1,5,1.1,5L8.2,55z"/>
		<path fill="#B6DCFE" stroke="#4788C7" stroke-width="2" stroke-miterlimit="10" d="M22.8,121.1c0,0,0.1,0.2,1.2,5.3
			s6.4,3.6,6.4,3.6l40.2-8.6c0,0,5.7-1.6,4.6-6.6c-1.1-5-1.1-5-1.1-5L22.8,121.1z"/>
		<path fill="#4788C7" d="M53.6,120.8l-7.2,1.6c-0.6,0.1-1.1-0.2-1.2-0.8h0c-0.1-0.6,0.2-1.1,0.8-1.2l7.2-1.6
			c0.6-0.1,1.1,0.2,1.2,0.8l0,0C54.5,120.1,54.2,120.7,53.6,120.8z"/>
		
			<rect x="30.3" y="43.9" transform="matrix(0.9766 -0.2153 0.2153 0.9766 -8.8572 8.1147)" fill="#4788C7" width="5" height="1.7"/>
	</g>
</g>
<g id="Text">
	<g>
		<path fill="#4788C7" d="M27.5,86.9l-4.3,0.9l-1.6-7.3l0.5-0.1l1.4,6.8l3.8-0.8L27.5,86.9z"/>
		<path fill="#4788C7" d="M30.4,78.4c0.5-0.1,1-0.1,1.4,0c0.5,0.1,0.9,0.3,1.3,0.5c0.4,0.3,0.7,0.6,1,1c0.3,0.4,0.5,0.9,0.6,1.5
			c0.1,0.6,0.1,1.1,0.1,1.6s-0.2,1-0.5,1.4c-0.2,0.4-0.5,0.7-0.9,1c-0.4,0.3-0.8,0.5-1.3,0.6c-0.5,0.1-1,0.1-1.5,0s-0.9-0.3-1.3-0.5
			c-0.4-0.3-0.7-0.6-1-1.1c-0.3-0.4-0.5-0.9-0.6-1.5c-0.1-0.6-0.1-1.1-0.1-1.6c0.1-0.5,0.2-0.9,0.5-1.3c0.2-0.4,0.5-0.7,0.9-1
			C29.5,78.7,29.9,78.6,30.4,78.4z M31.9,85.5c0.4-0.1,0.8-0.2,1.1-0.5c0.3-0.2,0.6-0.5,0.8-0.8c0.2-0.3,0.3-0.7,0.4-1.2
			c0.1-0.4,0-0.9-0.1-1.4c-0.1-0.5-0.3-1-0.5-1.3c-0.2-0.4-0.5-0.7-0.8-0.9c-0.3-0.2-0.7-0.4-1-0.4c-0.4-0.1-0.8-0.1-1.2,0
			c-0.4,0.1-0.8,0.2-1.1,0.5c-0.3,0.2-0.6,0.5-0.8,0.8c-0.2,0.3-0.3,0.7-0.4,1.1c-0.1,0.4,0,0.9,0.1,1.4s0.3,1,0.5,1.3
			c0.2,0.4,0.5,0.7,0.8,0.9c0.3,0.2,0.7,0.4,1.1,0.4C31.1,85.6,31.5,85.6,31.9,85.5z"/>
		<path fill="#4788C7" d="M40.2,84.3c-0.5,0.1-1,0.1-1.5,0c-0.5-0.1-0.9-0.3-1.3-0.5c-0.4-0.3-0.7-0.6-1-1.1
			c-0.3-0.4-0.5-0.9-0.6-1.5c-0.1-0.6-0.1-1.1-0.1-1.6c0.1-0.5,0.2-0.9,0.5-1.3c0.2-0.4,0.5-0.7,0.9-1s0.8-0.5,1.3-0.6
			c0.4-0.1,0.8-0.1,1.2-0.1c0.4,0,0.7,0.1,1,0.2c0.3,0.1,0.6,0.3,0.8,0.5s0.4,0.5,0.6,0.8l-0.6,0.1c-0.1-0.2-0.2-0.4-0.4-0.6
			s-0.4-0.3-0.6-0.4c-0.2-0.1-0.5-0.2-0.8-0.2c-0.3,0-0.6,0-1,0.1c-0.4,0.1-0.8,0.2-1.1,0.5c-0.3,0.2-0.6,0.5-0.8,0.8
			c-0.2,0.3-0.3,0.7-0.4,1.1c-0.1,0.4,0,0.9,0.1,1.4c0.1,0.5,0.3,1,0.5,1.3c0.2,0.4,0.5,0.7,0.8,0.9c0.3,0.2,0.7,0.4,1.1,0.4
			c0.4,0.1,0.8,0.1,1.2,0c0.6-0.1,1.1-0.4,1.5-0.7c0.4-0.3,0.7-0.7,0.9-1.2l-0.3-1.3l-2,0.4l-0.1-0.5l2.6-0.5l0.8,3.6l-0.3,0.1
			l-0.4-0.9c-0.1,0.2-0.3,0.5-0.5,0.6s-0.4,0.3-0.6,0.5c-0.2,0.1-0.4,0.3-0.7,0.3C40.7,84.2,40.4,84.2,40.2,84.3z"/>
		<path fill="#4788C7" d="M48.3,82.6c-0.5,0.1-1,0.1-1.5,0c-0.5-0.1-0.9-0.3-1.3-0.5c-0.4-0.3-0.7-0.6-1-1.1
			c-0.3-0.4-0.5-0.9-0.6-1.5c-0.1-0.6-0.2-1.1-0.1-1.6c0.1-0.5,0.2-0.9,0.5-1.3c0.2-0.4,0.5-0.7,0.9-1s0.8-0.5,1.3-0.6
			c0.4-0.1,0.8-0.1,1.2-0.1c0.4,0,0.7,0.1,1,0.2c0.3,0.1,0.6,0.3,0.8,0.5s0.4,0.5,0.6,0.8l-0.6,0.1c-0.1-0.2-0.2-0.4-0.4-0.6
			c-0.2-0.2-0.4-0.3-0.6-0.4c-0.2-0.1-0.5-0.2-0.8-0.2c-0.3,0-0.6,0-1,0.1c-0.4,0.1-0.8,0.2-1.1,0.5c-0.3,0.2-0.6,0.5-0.8,0.8
			c-0.2,0.3-0.3,0.7-0.4,1.1c-0.1,0.4,0,0.9,0.1,1.4c0.1,0.5,0.3,1,0.5,1.3c0.2,0.4,0.5,0.7,0.8,0.9c0.3,0.2,0.7,0.4,1.1,0.4
			s0.8,0.1,1.2,0c0.6-0.1,1.1-0.4,1.5-0.7c0.4-0.3,0.7-0.7,0.9-1.2l-0.3-1.3l-2,0.4l-0.1-0.5l2.6-0.5l0.8,3.6l-0.3,0.1l-0.4-0.9
			c-0.1,0.2-0.3,0.5-0.5,0.6s-0.4,0.3-0.6,0.5c-0.2,0.1-0.4,0.3-0.7,0.3C48.8,82.4,48.5,82.5,48.3,82.6z"/>
		<path fill="#4788C7" d="M54,81.2l-0.5,0.1L51.9,74l0.5-0.1L54,81.2z"/>
		<path fill="#4788C7" d="M59.7,72.9l-2.6,0.5l1.4,6.8L58,80.4l-1.4-6.8l-2.5,0.5l-0.1-0.5l5.6-1.2L59.7,72.9z"/>
	</g>
</g>
</svg>
