<?xml version="1.0" encoding="utf-8"?>
<!-- Generator: Adobe Illustrator 21.1.0, SVG Export Plug-In . SVG Version: 6.00 Build 0)  -->
<svg version="1.1" xmlns="http://www.w3.org/2000/svg" xmlns:xlink="http://www.w3.org/1999/xlink" x="0px" y="0px"
	 viewBox="0 0 150 150" style="enable-background:new 0 0 150 150;" xml:space="preserve">
<style type="text/css">
	.st0{fill:#DFF0FE;stroke:#FFFFFF;stroke-width:2;stroke-miterlimit:10;}
	.st1{fill:#4788C7;}
	.st2{fill:#B6DCFE;stroke:#4788C7;stroke-width:2;stroke-miterlimit:10;}
	.st3{fill:#E6F3FC;stroke:#4788C7;stroke-width:2;stroke-miterlimit:10;}
	.st4{fill:#98CCFD;}
	.st5{fill:#DFF0FE;stroke:#4788C7;stroke-width:2;stroke-miterlimit:10;}
</style>
<g id="Layer_1">
	<path class="st0" d="M125.6,137.6H24.4c-6.6,0-12-5.4-12-12V24.4c0-6.6,5.4-12,12-12h101.2c6.6,0,12,5.4,12,12v101.2
		C137.6,132.2,132.2,137.6,125.6,137.6z"/>
</g>
<g id="Note">
	<g>
		
			<rect x="112.2" y="62.3" transform="matrix(0.2331 -0.9725 0.9725 0.2331 38.8529 175.6704)" class="st1" width="37.2" height="1.7"/>
		<g>
			<path class="st2" d="M103.5,114.8c0,0-16.1,4.2-16.7,3.5s10.3-13.6,10.3-13.6l26.9-17l6.4,10.1L103.5,114.8L103.5,114.8z"/>
			<polygon class="st3" points="124.1,87.7 131.3,83.1 137.6,93.2 130.5,97.8 			"/>
			<path class="st2" d="M137.6,93.2c3.7-2.3,8.1-4,4.6-9.9c-3.5-6-7.2-2.5-10.9-0.1L137.6,93.2z"/>
			<polygon class="st2" points="97.7,104.6 99.5,107.4 100,108.2 100.5,108.9 102,111.4 102.4,112 102.7,112.5 103.8,114.2 			"/>
		</g>
		
			<rect x="13.7" y="62.3" transform="matrix(0.2331 -0.9725 0.9725 0.2331 -22.3929 97.8916)" class="st1" width="74.3" height="1.7"/>
		
			<rect x="59.1" y="36.2" transform="matrix(0.9725 0.2331 -0.2331 0.9725 11.332 -21.7721)" class="st1" width="77.4" height="1.7"/>
		
			<rect x="42.7" y="102.4" transform="matrix(0.9725 0.2331 -0.2331 0.9725 25.7794 -11.7045)" class="st1" width="39.4" height="1.7"/>
		
			<rect x="65.2" y="66.8" transform="matrix(0.9725 0.2331 -0.2331 0.9725 17.5982 -13.5467)" class="st1" width="1.8" height="1.8"/>
		<rect x="61.1" y="84" transform="matrix(0.9725 0.2331 -0.2331 0.9725 21.5015 -12.1093)" class="st1" width="1.8" height="1.8"/>
		
			<rect x="63.2" y="75.4" transform="matrix(0.9725 0.2331 -0.2331 0.9725 19.5446 -12.8299)" class="st1" width="1.8" height="1.8"/>
		
			<rect x="69.3" y="89.4" transform="matrix(0.9725 0.2331 -0.2331 0.9725 23.3657 -17.1716)" class="st1" width="30.1" height="1.8"/>
		
			<rect x="71.3" y="81.8" transform="matrix(0.9725 0.2331 -0.2331 0.9725 21.7696 -18.8721)" class="st1" width="39" height="1.8"/>
		
			<rect x="73.3" y="73.2" transform="matrix(0.9725 0.2331 -0.2331 0.9725 19.8233 -19.5888)" class="st1" width="39" height="1.8"/>
		
			<rect x="75.4" y="64.6" transform="matrix(0.9725 0.2331 -0.2331 0.9725 17.8716 -20.3075)" class="st1" width="39" height="1.8"/>
		
			<rect x="67.3" y="58.2" transform="matrix(0.9725 0.2331 -0.2331 0.9725 15.6466 -14.2654)" class="st1" width="1.8" height="1.8"/>
		
			<rect x="57.7" y="37.6" transform="matrix(0.9725 0.2331 -0.2331 0.9725 12.6395 -21.1187)" class="st4" width="76" height="10.7"/>
	</g>
</g>
<g id="Phone">
	<g>
		<polygon class="st5" points="55.2,48.4 68.1,106.8 22.7,116.5 9.9,58.4 		"/>
		<path class="st2" d="M9.9,58.4c0,0,0.3,1.2-0.9-3.9s4-6.2,4-6.2l35.3-7.8c0,0,5-1.1,5.9,3.4s1,4.5,1,4.5L9.9,58.4z"/>
		<path class="st2" d="M22.8,116.8c0,0,0,0.2,1,4.7c1,4.5,5.7,3.2,5.7,3.2l35.5-7.6c0,0,5.1-1.5,4.1-5.9s-1-4.4-1-4.4L22.8,116.8z"
			/>
		<path class="st1" d="M50,116.6l-6.4,1.4c-0.5,0.1-1-0.2-1.1-0.7l0,0c-0.1-0.5,0.2-1,0.7-1.1l6.4-1.4c0.5-0.1,1,0.2,1.1,0.7l0,0
			C50.9,116,50.5,116.5,50,116.6z"/>
		<rect x="29.5" y="48.6" transform="matrix(0.9766 -0.2153 0.2153 0.9766 -9.8736 7.9754)" class="st1" width="4.4" height="1.5"/>
	</g>
</g>
<g id="Text">
</g>
</svg>
