<?xml version="1.0" encoding="utf-8"?>
<!-- Generator: Adobe Illustrator 18.0.0, SVG Export Plug-In . SVG Version: 6.00 Build 0)  -->
<!DOCTYPE svg PUBLIC "-//W3C//DTD SVG 1.1//EN" "http://www.w3.org/Graphics/SVG/1.1/DTD/svg11.dtd">
<svg version="1.1" xmlns="http://www.w3.org/2000/svg" xmlns:xlink="http://www.w3.org/1999/xlink" x="0px" y="0px"
	 viewBox="0 0 612 612" enable-background="new 0 0 612 612" xml:space="preserve">
<g id="Layer_1">
	<linearGradient id="SVGID_1_" gradientUnits="userSpaceOnUse" x1="143.4058" y1="24.3786" x2="468.5942" y2="587.6214">
		<stop  offset="0" style="stop-color:#36C2D6"/>
		<stop  offset="1" style="stop-color:#00ACC1"/>
	</linearGradient>
	<path fill="url(#SVGID_1_)" d="M535.3,547.3H76.7c-6.6,0-12-5.4-12-12V76.7c0-6.6,5.4-12,12-12h458.6c6.6,0,12,5.4,12,12v458.6
		C547.3,541.9,541.9,547.3,535.3,547.3z"/>
	<g>
		<g>
			<defs>
				<rect id="SVGID_2_" x="191.8" y="191.8" width="228.4" height="228.4"/>
			</defs>
			<clipPath id="SVGID_3_">
				<use xlink:href="#SVGID_2_"  overflow="visible"/>
			</clipPath>
			<path clip-path="url(#SVGID_3_)" fill="#FFFFFF" d="M410.7,267.9c0,10.5-8.6,19-19,19c-1.7,0-3.3-0.2-4.9-0.7l-33.9,33.8
				c0.5,1.5,0.7,3.2,0.7,4.9c0,10.5-8.6,19-19,19c-10.5,0-19-8.6-19-19c0-1.7,0.2-3.4,0.7-4.9l-24.3-24.3c-1.5,0.5-3.2,0.7-4.9,0.7
				c-1.7,0-3.4-0.2-4.9-0.7l-43.3,43.4c0.5,1.5,0.7,3.1,0.7,4.9c0,10.5-8.6,19-19,19c-10.5,0-19-8.6-19-19s8.6-19,19-19
				c1.7,0,3.3,0.2,4.9,0.7l43.4-43.3c-0.5-1.5-0.7-3.2-0.7-4.9c0-10.5,8.6-19,19-19c10.5,0,19,8.6,19,19c0,1.7-0.2,3.4-0.7,4.9
				l24.3,24.3c1.5-0.5,3.2-0.7,4.9-0.7c1.7,0,3.4,0.2,4.9,0.7l33.8-33.9c-0.5-1.5-0.7-3.1-0.7-4.9c0-10.5,8.6-19,19-19
				S410.7,257.5,410.7,267.9z"/>
		</g>
	</g>
</g>
<g id="Layer_2">
</g>
</svg>
