<svg xmlns="http://www.w3.org/2000/svg" viewBox="0 0 150 150"><defs><style>.cls-1,.cls-6{fill:#dff0fe;}.cls-1{stroke:#fff;}.cls-1,.cls-3,.cls-4,.cls-6{stroke-miterlimit:10;stroke-width:2px;}.cls-2{fill:#4788c7;}.cls-3{fill:#b6dcfe;}.cls-3,.cls-4,.cls-6{stroke:#4788c7;}.cls-4{fill:#e6f3fc;}.cls-5{fill:#98ccfd;}</style></defs><title>Artboard 1</title><g id="Layer_1" data-name="Layer 1"><rect class="cls-1" x="12.4" y="12.4" width="125.2" height="125.2" rx="12" ry="12"/></g><g id="Note"><rect class="cls-2" x="112.22" y="62.35" width="37.16" height="1.71" transform="translate(38.85 175.67) rotate(-76.52)"/><path class="cls-3" d="M103.55,114.76S87.46,119,86.89,118.3s10.29-13.63,10.29-13.63l26.91-17,6.37,10.08-26.91,17Z"/><polygon class="cls-4" points="124.08 87.67 131.28 83.12 137.64 93.21 130.46 97.75 124.08 87.67"/><path class="cls-3" d="M137.64,93.21c3.72-2.35,8.1-4,4.59-9.95s-7.23-2.5-10.94-.15Z"/><polygon class="cls-3" points="97.74 104.61 99.52 107.41 100.01 108.19 100.46 108.91 102.04 111.41 102.42 112.01 102.72 112.47 103.83 114.24 97.74 104.61"/><rect class="cls-2" x="13.71" y="62.29" width="74.31" height="1.71" transform="translate(-22.39 97.89) rotate(-76.52)"/><rect class="cls-2" x="59.09" y="36.21" width="77.41" height="1.71" transform="translate(11.33 -21.77) rotate(13.48)"/><rect class="cls-2" x="42.7" y="102.38" width="39.44" height="1.71" transform="translate(25.78 -11.7) rotate(13.48)"/><rect class="cls-2" x="65.24" y="66.81" width="1.77" height="1.77" transform="translate(17.6 -13.55) rotate(13.48)"/><rect class="cls-2" x="61.11" y="84.04" width="1.77" height="1.77" transform="translate(21.5 -12.11) rotate(13.48)"/><rect class="cls-2" x="63.18" y="75.4" width="1.77" height="1.77" transform="translate(19.54 -12.83) rotate(13.48)"/><rect class="cls-2" x="69.32" y="89.4" width="30.05" height="1.77" transform="translate(23.37 -17.17) rotate(13.48)"/><rect class="cls-2" x="71.27" y="81.8" width="38.95" height="1.77" transform="translate(21.77 -18.87) rotate(13.48)"/><rect class="cls-2" x="73.33" y="73.2" width="38.95" height="1.77" transform="translate(19.82 -19.59) rotate(13.48)"/><rect class="cls-2" x="75.39" y="64.58" width="38.95" height="1.77" transform="translate(17.87 -20.31) rotate(13.48)"/><rect class="cls-2" x="67.3" y="58.19" width="1.77" height="1.77" transform="translate(15.65 -14.27) rotate(13.48)"/><rect class="cls-5" x="57.67" y="37.59" width="76.03" height="10.67" transform="translate(12.64 -21.12) rotate(13.48)"/></g><g id="Phone"><polygon class="cls-6" points="55.25 48.4 68.13 106.84 22.73 116.55 9.91 58.4 55.25 48.4"/><path class="cls-3" d="M9.91,58.4l-.86-3.89c-1.11-5,4-6.16,4-6.16l35.26-7.77s5-1.09,5.95,3.37l1,4.46Z"/><path class="cls-3" d="M22.79,116.83l1,4.7c1,4.48,5.66,3.22,5.66,3.22L65,117.15s5.06-1.45,4.08-5.88l-1-4.43Z"/><rect class="cls-2" x="42.44" y="115.5" width="8.4" height="1.85" rx="0.93" ry="0.93" transform="translate(-23.97 12.77) rotate(-12.43)"/><rect class="cls-2" x="29.45" y="48.59" width="4.45" height="1.46" transform="translate(-9.87 7.98) rotate(-12.43)"/></g></svg>